<svg width="48" height="48" viewBox="0 0 48 48" fill="none" xmlns="http://www.w3.org/2000/svg">
<path d="M39.76 33.9498H26.621C26.1954 33.9498 25.8565 33.6109 25.8565 33.1853V25.5399C25.8565 25.1143 26.1954 24.7754 26.621 24.7754H39.7521C40.1777 24.7754 40.5166 25.1143 40.5166 25.5399V33.1853C40.5245 33.603 40.1777 33.9498 39.76 33.9498ZM27.3855 32.4207H38.9954V26.3045H27.3855V32.4207ZM44.6388 43.9991H21.7422C21.222 43.9991 20.7491 43.739 20.4653 43.3055C20.1816 42.872 20.1343 42.3282 20.3471 41.8552L22.7274 36.4404C22.9717 35.8887 23.5156 35.5262 24.1225 35.5262C24.5481 35.5262 24.887 35.8651 24.887 36.2907C24.887 36.7163 24.5481 37.0552 24.1225 37.0552L21.7422 42.47H44.6388L42.2585 37.0631C41.8329 37.0631 41.4939 36.7242 41.4939 36.2986C41.4939 35.873 41.8329 35.534 42.2585 35.534C42.8654 35.534 43.4092 35.8887 43.6536 36.4483L46.0339 41.8631C46.2467 42.336 46.1994 42.8799 45.9156 43.3134C45.6319 43.739 45.159 43.9991 44.6388 43.9991Z" fill="#C1272D"/>
<path d="M38.3317 40.5321H28.046C27.6204 40.5321 27.2815 40.1932 27.2815 39.7676C27.2815 39.342 27.6204 39.0031 28.046 39.0031H38.3396C38.7652 39.0031 39.1041 39.342 39.1041 39.7676C39.1021 39.9711 39.0198 40.1655 38.8751 40.3087C38.7305 40.4518 38.5352 40.5321 38.3317 40.5321ZM32.9642 15.9173C32.5386 15.9173 32.1997 15.5784 32.1997 15.1527V5.52907L21.8824 5.52907C21.4568 5.52907 21.1179 5.19015 21.1179 4.76453C21.1179 4.33892 21.4568 4 21.8824 4H32.9642C33.3898 4 33.7288 4.33892 33.7288 4.76453V15.1527C33.7288 15.5705 33.3898 15.9173 32.9642 15.9173ZM15.112 40.0356H4.03016C3.60454 40.0356 3.26562 39.6966 3.26562 39.271V28.8828C3.26562 28.4572 3.60454 28.1183 4.03016 28.1183C4.45578 28.1183 4.79469 28.4572 4.79469 28.8828V38.5065H15.112C15.3147 38.5065 15.5092 38.587 15.6526 38.7304C15.7959 38.8738 15.8765 39.0683 15.8765 39.271C15.8765 39.4738 15.7959 39.6683 15.6526 39.8116C15.5092 39.955 15.3147 40.0356 15.112 40.0356Z" fill="#C1272D"/>
<path d="M15.3776 20.0662H16.5774C15.7238 21.4169 14.4547 22.4539 12.9609 23.0211C11.4672 23.5883 9.82962 23.6552 8.29463 23.2115C6.75964 22.7679 5.41022 21.8378 4.44939 20.5611C3.48857 19.2845 2.96829 17.7303 2.96684 16.1325V11.7071H2.47513C2.34472 11.7071 2.21966 11.6553 2.12744 11.5631C2.03523 11.4709 1.98342 11.3458 1.98342 11.2154V8.75686H1V7.77344L19.685 7.77344V8.75686H18.7016V10.232H17.7182V8.75686H2.96684V10.7237H11.8176V11.7071H3.95027L3.95027 16.1325C3.95118 17.4627 4.36704 18.7595 5.13991 19.8422C5.91278 20.9248 7.00414 21.7394 8.26191 22.1723C9.51967 22.6053 10.8812 22.6351 12.1567 22.2576C13.4322 21.88 14.5581 21.114 15.3776 20.0662ZM17.7182 14.6574C17.3582 14.6569 17.0025 14.7355 16.6763 14.8876C16.35 15.0397 16.0611 15.2616 15.83 15.5376L16.5872 16.1669C16.7257 16.0016 16.8987 15.8687 17.0941 15.7774C17.2895 15.6862 17.5025 15.6389 17.7182 15.6389C17.9338 15.6389 18.1469 15.6862 18.3422 15.7774C18.5376 15.8687 18.7107 16.0016 18.8491 16.1669L19.6064 15.5376C19.3753 15.2616 19.0864 15.0397 18.7601 14.8876C18.4338 14.7355 18.0782 14.6569 17.7182 14.6574ZM14.4532 14.1313L15.181 14.7902C15.5034 14.4384 15.8955 14.1575 16.3323 13.9654C16.769 13.7733 17.241 13.6741 17.7182 13.6741C18.1954 13.6741 18.6673 13.7733 19.1041 13.9654C19.5409 14.1575 19.933 14.4384 20.2554 14.7902L20.9831 14.1313C20.5685 13.6781 20.0641 13.3162 19.502 13.0686C18.9399 12.8211 18.3324 12.6932 17.7182 12.6932C17.104 12.6932 16.4965 12.8211 15.9344 13.0686C15.3723 13.3162 14.8678 13.6781 14.4532 14.1313ZM17.2265 17.6077H18.2099V16.6242H17.2265V17.6077ZM22.6353 12.1988V18.0994C22.6353 18.4906 22.4799 18.8658 22.2032 19.1425C21.9266 19.4191 21.5514 19.5745 21.1602 19.5745H14.2762C13.885 19.5745 13.5098 19.4191 13.2331 19.1425C12.9565 18.8658 12.8011 18.4906 12.8011 18.0994V12.1988C12.8011 11.8076 12.9565 11.4324 13.2331 11.1558C13.5098 10.8791 13.885 10.7237 14.2762 10.7237H21.1602C21.5514 10.7237 21.9266 10.8791 22.2032 11.1558C22.4799 11.4324 22.6353 11.8076 22.6353 12.1988ZM21.6519 12.1988C21.6519 12.0684 21.6001 11.9434 21.5079 11.8511C21.4156 11.7589 21.2906 11.7071 21.1602 11.7071H14.2762C14.1458 11.7071 14.0207 11.7589 13.9285 11.8511C13.8363 11.9434 13.7845 12.0684 13.7845 12.1988V18.0994C13.7845 18.2298 13.8363 18.3549 13.9285 18.4471C14.0207 18.5393 14.1458 18.5911 14.2762 18.5911H21.1602C21.2906 18.5911 21.4156 18.5393 21.5079 18.4471C21.6001 18.3549 21.6519 18.2298 21.6519 18.0994V12.1988ZM12.3094 13.7133C11.7126 13.3647 11.0337 13.1814 10.3425 13.1823C9.68817 13.1821 9.0441 13.3451 8.46866 13.6566C7.89321 13.9681 7.40456 14.4182 7.04696 14.9662C6.68936 15.5142 6.47411 16.1427 6.4207 16.7949C6.36729 17.447 6.47741 18.1022 6.74109 18.7011C7.00477 19.3 7.41368 19.8236 7.93078 20.2246C8.44788 20.6255 9.05684 20.8912 9.7025 20.9974C10.3482 21.1037 11.0101 21.0472 11.6285 20.8331C12.2468 20.619 12.8019 20.254 13.2436 19.7712C12.9601 19.6046 12.7247 19.3675 12.5601 19.0828C12.1731 19.5194 11.6652 19.8315 11.1008 19.9795C10.5364 20.1276 9.94075 20.1049 9.38921 19.9144C8.83768 19.7239 8.35502 19.3741 8.00227 18.9093C7.64951 18.4445 7.44251 17.8856 7.40744 17.3031C7.37237 16.7207 7.5108 16.1409 7.80524 15.6371C8.09967 15.1333 8.53687 14.7282 9.06157 14.4729C9.58626 14.2176 10.1749 14.1236 10.753 14.2028C11.3311 14.2821 11.8727 14.5309 12.3094 14.918V13.7133ZM10.3425 15.1491C10.7315 15.1491 11.1118 15.2645 11.4352 15.4806C11.7587 15.6967 12.0108 16.0039 12.1596 16.3633C12.3085 16.7227 12.3475 17.1181 12.2716 17.4997C12.1957 17.8812 12.0084 18.2317 11.7333 18.5067C11.4582 18.7818 11.1078 18.9691 10.7262 19.045C10.3447 19.1209 9.94923 19.0819 9.58983 18.9331C9.23044 18.7842 8.92326 18.5321 8.70714 18.2087C8.49102 17.8852 8.37567 17.505 8.37567 17.116C8.37567 16.5943 8.58289 16.094 8.95174 15.7252C9.3206 15.3563 9.82087 15.1491 10.3425 15.1491ZM10.3425 16.1325C10.148 16.1325 9.95788 16.1902 9.79615 16.2983C9.63443 16.4063 9.50838 16.5599 9.43395 16.7396C9.35952 16.9193 9.34004 17.117 9.37799 17.3078C9.41593 17.4986 9.50959 17.6738 9.64713 17.8113C9.78466 17.9489 9.95989 18.0425 10.1507 18.0805C10.3414 18.1184 10.5392 18.0989 10.7189 18.0245C10.8986 17.9501 11.0521 17.824 11.1602 17.6623C11.2683 17.5006 11.3259 17.3105 11.3259 17.116C11.3259 16.8551 11.2223 16.605 11.0379 16.4206C10.8535 16.2361 10.6033 16.1325 10.3425 16.1325Z" fill="#C1272D"/>
</svg>
