<svg width="37" height="37" viewBox="0 0 37 37" fill="none" xmlns="http://www.w3.org/2000/svg">
<g clip-path="url(#clip0_1342_1736)">
<path d="M25.9264 9.82401C25.8872 9.5455 25.739 9.29396 25.5144 9.1247C25.2898 8.95544 25.0071 8.88232 24.7286 8.92142L15.8162 10.174C15.5415 10.2175 15.2949 10.3671 15.1295 10.5907C14.964 10.8142 14.893 11.0938 14.9317 11.3692C14.9704 11.6446 15.1158 11.8938 15.3364 12.0631C15.557 12.2324 15.8354 12.3083 16.1114 12.2743L22.4882 11.3781L11.2627 26.2749C11.0934 26.4996 11.0203 26.7823 11.0595 27.0608C11.0986 27.3394 11.2468 27.591 11.4715 27.7603C11.6961 27.9296 11.9788 28.0027 12.2574 27.9636C12.536 27.9244 12.7876 27.7762 12.9569 27.5515L24.1824 12.6548L25.0786 19.0316C25.1221 19.3063 25.2717 19.5529 25.4953 19.7184C25.7188 19.8838 25.9984 19.9548 26.2738 19.9161C26.5492 19.8774 26.7984 19.7321 26.9677 19.5114C27.137 19.2908 27.2129 19.0125 27.179 18.7364L25.9264 9.82401Z" fill="#C1272D"/>
</g>
<defs>
<clipPath id="clip0_1342_1736">
<rect width="25.4558" height="25.4558" fill="white" transform="translate(20.9961 36.2676) rotate(-143)"/>
</clipPath>
</defs>
</svg>
