<svg xmlns="http://www.w3.org/2000/svg" width="24" height="24" viewBox="0 0 24 24" fill="none">
  <g clip-path="url(#clip0_2216_39)">
    <path d="M7.72969 1.15418C7.36875 0.282307 6.41719 -0.181756 5.50781 0.0666819L1.38281 1.19168C0.567188 1.41668 0 2.15731 0 3.00106C0 14.5979 9.40313 24.0011 21 24.0011C21.8438 24.0011 22.5844 23.4339 22.8094 22.6182L23.9344 18.4932C24.1828 17.5839 23.7188 16.6323 22.8469 16.2714L18.3469 14.3964C17.5828 14.0776 16.6969 14.2979 16.1766 14.9401L14.2828 17.2511C10.9828 15.6901 8.31094 13.0182 6.75 9.71824L9.06094 7.82918C9.70312 7.30418 9.92344 6.42293 9.60469 5.65887L7.72969 1.15887V1.15418Z" fill="#C1272D"/>
  </g>
  <defs>
    <clipPath id="clip0_2216_39">
      <rect width="24" height="24" fill="white"/>
    </clipPath>
  </defs>
</svg>
