<svg width="16" height="16" viewBox="0 0 16 16" fill="none" xmlns="http://www.w3.org/2000/svg">
<g id="Call">
<path id="Vector" d="M12.9591 8.66625C12.8124 8.66625 12.6591 8.61959 12.5124 8.58625C12.2154 8.5208 11.9235 8.43391 11.6391 8.32625C11.3298 8.21374 10.9899 8.21958 10.6846 8.34266C10.3794 8.46573 10.1305 8.69734 9.98576 8.99292L9.83909 9.29292C9.18976 8.9317 8.59308 8.48307 8.06576 7.95959C7.54227 7.43226 7.09364 6.83558 6.73242 6.18625L7.01242 5.99959C7.308 5.85486 7.53961 5.60594 7.66269 5.30071C7.78576 4.99549 7.7916 4.65553 7.67909 4.34625C7.57324 4.0612 7.48638 3.76945 7.41909 3.47292C7.38576 3.32625 7.35909 3.17292 7.33909 3.01959C7.25813 2.55 7.01217 2.12475 6.6455 1.82041C6.27884 1.51608 5.81555 1.35266 5.33909 1.35959H3.33909C3.05178 1.35689 2.76726 1.41613 2.5049 1.53327C2.24254 1.65042 2.0085 1.82272 1.81871 2.03844C1.62892 2.25417 1.48785 2.50825 1.40508 2.7834C1.32232 3.05854 1.29981 3.34829 1.33909 3.63292C1.69425 6.42584 2.96978 9.02084 4.96419 11.008C6.95861 12.9952 9.55823 14.2613 12.3524 14.6063H12.6058C13.0974 14.607 13.572 14.4266 13.9391 14.0996C14.15 13.9109 14.3185 13.6797 14.4334 13.4211C14.5483 13.1626 14.6071 12.8825 14.6058 12.5996V10.5996C14.5976 10.1365 14.429 9.69062 14.1286 9.33803C13.8283 8.98544 13.415 8.748 12.9591 8.66625ZM13.2924 12.6663C13.2923 12.7609 13.272 12.8545 13.2329 12.9407C13.1939 13.0269 13.1369 13.1038 13.0658 13.1663C12.9913 13.2306 12.9042 13.2786 12.81 13.3073C12.7159 13.336 12.6168 13.3447 12.5191 13.3329C10.0224 13.0128 7.70325 11.8706 5.92757 10.0864C4.15189 8.30232 3.0207 5.97781 2.71242 3.47959C2.70181 3.38193 2.71111 3.28314 2.73976 3.18918C2.7684 3.09522 2.8158 3.00804 2.87909 2.93292C2.94156 2.86181 3.01846 2.80481 3.10468 2.76573C3.19089 2.72665 3.28443 2.70637 3.37909 2.70625H5.37909C5.53412 2.7028 5.68551 2.75351 5.80719 2.84963C5.92887 2.94576 6.01323 3.0813 6.04576 3.23292C6.07242 3.41514 6.10576 3.59514 6.14576 3.77292C6.22277 4.12435 6.32526 4.46971 6.45242 4.80625L5.51909 5.23959C5.43929 5.2762 5.36751 5.32822 5.30786 5.39265C5.24822 5.45708 5.20189 5.53266 5.17154 5.61505C5.14118 5.69744 5.1274 5.78501 5.13099 5.87273C5.13457 5.96046 5.15545 6.04662 5.19242 6.12625C6.15189 8.18142 7.80392 9.83345 9.85909 10.7929C10.0214 10.8596 10.2034 10.8596 10.3658 10.7929C10.4489 10.7632 10.5253 10.7172 10.5905 10.6577C10.6558 10.5982 10.7085 10.5263 10.7458 10.4463L11.1591 9.51292C11.5037 9.63617 11.8555 9.73858 12.2124 9.81959C12.3902 9.85959 12.5702 9.89292 12.7524 9.91959C12.904 9.95211 13.0396 10.0365 13.1357 10.1582C13.2318 10.2798 13.2825 10.4312 13.2791 10.5863L13.2924 12.6663Z" fill="white"/>
</g>
</svg>
