<svg width="48" height="48" viewBox="0 0 48 48" fill="none" xmlns="http://www.w3.org/2000/svg">
<path d="M6.22387 21.0905L6.22388 21.0905C9.31411 27.6635 14.6247 33.866 20.2863 37.8704C24.1479 40.6016 29.1992 43.0529 33.7967 43.4685C35.426 43.6156 37.4067 43.2466 39.1249 42.3873C40.8416 41.5288 42.2388 40.2117 42.8029 38.5031C42.803 38.5026 42.8032 38.5022 42.8034 38.5017C42.8037 38.5006 42.8041 38.4995 42.8044 38.4984L42.8045 38.4983C43.3555 36.8251 43.6121 35.7189 43.4512 34.8591C43.3029 34.0664 42.7726 33.3852 41.4053 32.6499L41.4049 32.6497C40.9325 32.3951 40.4633 32.1344 39.9954 31.8743C38.5992 31.0983 37.2142 30.3284 35.7871 29.7474L35.7866 29.7472C34.9296 29.3972 34.3888 29.4267 34.0056 29.5895C33.6017 29.7611 33.2665 30.1232 32.9101 30.6633C32.7473 30.91 32.5906 31.1769 32.4222 31.4636C32.4084 31.4871 32.3945 31.5107 32.3805 31.5345C32.199 31.8433 32.0045 32.1712 31.7885 32.4891C31.3566 33.1249 30.8165 33.7551 30.0481 34.176L30.048 34.1761C28.9689 34.7669 27.7322 34.4955 26.6775 34.0485C25.7651 33.6618 24.8742 33.0928 24.1735 32.6453C24.0549 32.5695 23.9418 32.4973 23.8349 32.43L23.8324 32.4284C21.1053 30.6876 18.7075 28.4784 16.7497 25.9027C16.6292 25.7458 16.4858 25.566 16.3281 25.3684C15.8635 24.7858 15.2751 24.0482 14.7844 23.2841C14.4521 22.7668 14.1496 22.2159 13.9475 21.6632C13.7463 21.113 13.6334 20.5308 13.7164 19.9642L13.7166 19.9627C13.9258 18.5643 14.7751 17.7065 15.4712 17.0036C15.5909 16.8827 15.706 16.7664 15.8126 16.6528C16.1916 16.2486 16.482 15.8716 16.637 15.4179C16.7884 14.9747 16.8269 14.4079 16.6038 13.6023L16.6037 13.6019C16.3509 12.6861 15.9959 11.7699 15.611 10.8439C15.49 10.5527 15.3651 10.2588 15.2398 9.96361C14.9712 9.33079 14.7002 8.6925 14.459 8.0643M6.22387 21.0905L14.9257 7.88508M6.22387 21.0905C4.05572 16.4796 3.6202 10.9186 6.74932 6.84027L6.22387 21.0905ZM14.459 8.0643L14.9257 7.88508M14.459 8.0643C14.459 8.06449 14.4591 8.06469 14.4592 8.06488L14.9257 7.88508M14.459 8.0643C14.3903 7.88626 14.3257 7.71556 14.2635 7.55147C14.1074 7.13936 13.967 6.76894 13.8198 6.42851C13.6157 5.95651 13.4155 5.58465 13.1803 5.29694C12.9514 5.01693 12.6866 4.81319 12.3405 4.68112C11.9875 4.54646 11.5231 4.47622 10.8839 4.50728M14.9257 7.88508C14.8599 7.71412 14.7967 7.54745 14.7353 7.38534C13.9191 5.23135 13.4086 3.88389 10.8592 4.00789M10.8839 4.50728C10.884 4.50727 10.8841 4.50727 10.8842 4.50726L10.8592 4.00789M10.8839 4.50728C9.96706 4.55316 9.22365 4.77042 8.57257 5.14753C7.91763 5.52688 7.33099 6.08258 6.7494 6.84016L10.8592 4.00789M10.8839 4.50728C10.8837 4.50729 10.8836 4.50729 10.8835 4.5073L10.8592 4.00789" stroke="#C1272D"/>
</svg>
