<svg width="472" height="490" viewBox="0 0 472 490" fill="none" xmlns="http://www.w3.org/2000/svg">
<path d="M51.9063 350.817C35.2365 319.12 27.0332 283.656 28.0907 247.858C29.1483 212.06 39.4308 177.142 57.9428 146.484C76.4548 115.826 102.569 90.4678 133.757 72.8637C164.945 55.2596 200.15 46.0064 235.963 46L235.964 51.5104C201.1 51.5166 166.827 60.5246 136.466 77.6624C106.104 94.8002 80.6815 119.487 62.66 149.333C44.6384 179.178 34.6282 213.171 33.5987 248.021C32.5691 282.87 40.5551 317.395 56.7834 348.252L51.9063 350.817Z" fill="url(#paint0_linear_3030_5630)"/>
<path d="M416.736 356.95C434.779 325.273 444.18 289.41 443.997 252.955C443.814 216.5 434.053 180.734 415.692 149.24C397.331 117.746 371.016 91.6307 339.382 73.5113C307.748 55.392 271.908 45.9049 235.453 46.0007L235.468 51.5111C270.957 51.4178 305.848 60.6535 336.643 78.2929C367.439 95.9322 393.057 121.356 410.932 152.015C428.806 182.675 438.309 217.494 438.487 252.983C438.665 288.472 429.513 323.385 411.948 354.222L416.736 356.95Z" fill="url(#paint1_linear_3030_5630)"/>
<path d="M416.995 356.493C398.672 388.85 372.01 415.704 339.784 434.258C307.558 452.812 270.948 462.388 233.764 461.988C196.581 461.588 160.185 451.228 128.366 431.986C96.5462 412.743 70.467 385.322 52.8436 352.579L57.6958 349.967C74.8524 381.843 100.241 408.538 131.217 427.27C162.194 446.003 197.626 456.089 233.824 456.478C270.022 456.867 305.662 447.545 337.034 429.482C368.406 411.42 394.363 385.278 412.2 353.777L416.995 356.493Z" fill="url(#paint2_linear_3030_5630)"/>
<circle cx="236" cy="48" r="20" fill="#C1272D"/>
<circle cx="413" cy="357" r="20" fill="#C1272D"/>
<circle cx="61" cy="359" r="20" fill="#C1272D"/>
<defs>
<linearGradient id="paint0_linear_3030_5630" x1="236" y1="46" x2="51.5" y2="358.5" gradientUnits="userSpaceOnUse">
<stop stop-color="#C1272D"/>
<stop offset="0.355" stop-color="#A86262"/>
<stop offset="0.94" stop-color="#282828"/>
</linearGradient>
<linearGradient id="paint1_linear_3030_5630" x1="420" y1="351.5" x2="236" y2="40.5" gradientUnits="userSpaceOnUse">
<stop stop-color="#C1272D"/>
<stop offset="0.355" stop-color="#A86262"/>
<stop offset="0.94" stop-color="#282828"/>
</linearGradient>
<linearGradient id="paint2_linear_3030_5630" x1="59" y1="367.5" x2="425.5" y2="362" gradientUnits="userSpaceOnUse">
<stop stop-color="#C1272D"/>
<stop offset="0.355" stop-color="#A86262"/>
<stop offset="0.94" stop-color="#282828"/>
</linearGradient>
</defs>
</svg>
