<svg width="194" height="246" viewBox="0 0 194 246" fill="none" xmlns="http://www.w3.org/2000/svg">
<mask id="mask0_3030_5631" style="mask-type:alpha" maskUnits="userSpaceOnUse" x="13" y="13" width="168" height="219">
<path d="M96.9688 231.811C92.2178 229.049 86.99 226.28 81.3648 223.301C65.5506 214.924 47.6259 205.43 34.0419 192.531C19.8433 179.047 13.2305 164.549 13.2305 146.903V43.9153L96.7543 13.3965L180.278 43.9153V146.903C180.278 164.698 173.468 179.405 158.845 193.185C144.894 206.332 126.689 215.95 110.626 224.437C105.733 227.022 101.167 229.434 96.9688 231.811Z" fill="#5112D7"/>
</mask>
<g mask="url(#mask0_3030_5631)">
<path d="M153.573 -20.9451C232.795 10.4099 271.66 100.19 240.305 179.413C208.95 258.636 119.17 297.5 39.9472 266.145C-39.2755 234.791 -78.1403 145.01 -46.7854 65.7875C-15.4304 -13.4352 74.35 -52.3 153.573 -20.9451Z" fill="url(#paint0_linear_3030_5631)"/>
</g>
<mask id="mask1_3030_5631" style="mask-type:alpha" maskUnits="userSpaceOnUse" x="0" y="0" width="194" height="246">
<path d="M96.7141 245.661L95.2463 244.531C89.9498 240.457 82.1325 236.317 73.081 231.523C58.2643 223.675 39.8249 213.908 25.3919 200.202C8.30596 183.977 0 165.481 0 143.658V35.3538L96.7581 0L193.516 35.3538V143.658C193.516 165.648 185.007 184.356 167.501 200.853C152.747 214.757 134.053 224.633 119.032 232.569C110.608 237.019 103.333 240.862 98.2137 244.574L96.7141 245.661ZM4.9598 38.8222V143.658C4.9598 189.829 45.6742 211.394 75.4024 227.14C83.8736 231.627 91.2866 235.553 96.7981 239.508C102.041 235.935 108.892 232.316 116.716 228.183C147.034 212.166 188.556 190.23 188.556 143.658V38.8222L96.7581 5.28036L4.9598 38.8222Z" fill="#5112D7"/>
</mask>
<g mask="url(#mask1_3030_5631)">
<path d="M153.568 266.147C74.3454 297.502 -15.4351 258.637 -46.79 179.414C-78.1449 100.192 -39.2801 10.4111 39.9425 -20.9438C119.165 -52.2988 208.946 -13.4339 240.301 65.7887C271.655 145.011 232.791 234.792 153.568 266.147Z" fill="url(#paint1_linear_3030_5631)"/>
</g>
<mask id="mask2_3030_5631" style="mask-type:alpha" maskUnits="userSpaceOnUse" x="0" y="0" width="194" height="246">
<path d="M96.7141 245.661L95.2463 244.531C89.9498 240.457 82.1325 236.317 73.081 231.523C58.2643 223.675 39.8249 213.908 25.3919 200.202C8.30596 183.977 0 165.481 0 143.658V35.3538L96.7581 0L193.516 35.3538V143.658C193.516 165.648 185.007 184.356 167.501 200.853C152.747 214.757 134.053 224.633 119.032 232.569C110.608 237.019 103.333 240.862 98.2137 244.574L96.7141 245.661ZM4.9598 38.8222V143.658C4.9598 189.829 45.6742 211.394 75.4024 227.14C83.8736 231.627 91.2866 235.553 96.7981 239.508C102.041 235.935 108.892 232.316 116.716 228.183C147.034 212.166 188.556 190.23 188.556 143.658V38.8222L96.7581 5.28036L4.9598 38.8222Z" fill="#5112D7"/>
</mask>
<g mask="url(#mask2_3030_5631)">
<path d="M153.568 266.147C74.3454 297.502 -15.4351 258.637 -46.79 179.414C-78.1449 100.192 -39.2801 10.4111 39.9425 -20.9438C119.165 -52.2988 208.946 -13.4339 240.301 65.7887C271.655 145.011 232.791 234.792 153.568 266.147Z" fill="url(#paint2_linear_3030_5631)"/>
</g>
<path d="M132.796 102.612V89.8327C132.796 69.9625 116.631 53.7969 96.7604 53.7969C76.8903 53.7969 60.7245 69.9625 60.7245 89.8327V102.612C56.8511 104.551 53.1507 106.785 49.6641 109.299V165.273C62.9152 174.827 79.1849 180.458 96.7604 180.458C114.336 180.458 130.606 174.827 143.857 165.273V109.299C140.37 106.785 136.67 104.551 132.796 102.612ZM74.9963 89.8327C74.9963 77.8321 84.7599 68.0685 96.7604 68.0685C108.761 68.0685 118.525 77.8321 118.525 89.8327V97.096C111.6 95.1575 104.302 94.1143 96.7604 94.1143C89.2192 94.1143 81.9213 95.1575 74.9963 97.096V89.8327ZM105.68 159.407H87.8406L91.5869 137.465C87.8843 135.577 85.343 131.737 85.343 127.296C85.343 120.99 90.455 115.878 96.7604 115.878C103.066 115.878 108.178 120.99 108.178 127.296C108.178 131.737 105.637 135.577 101.934 137.465L105.68 159.407Z" fill="white"/>
<defs>
<linearGradient id="paint0_linear_3030_5631" x1="-26.9738" y1="141.509" x2="219.869" y2="104.781" gradientUnits="userSpaceOnUse">
<stop stop-color="#C1272D"/>
<stop offset="1" stop-color="#C1272D" stop-opacity="0.8"/>
</linearGradient>
<linearGradient id="paint1_linear_3030_5631" x1="174.034" y1="24.1357" x2="19.1867" y2="219.845" gradientUnits="userSpaceOnUse">
<stop stop-color="#C1272D"/>
<stop offset="1" stop-color="#C1272D" stop-opacity="0.8"/>
</linearGradient>
<linearGradient id="paint2_linear_3030_5631" x1="174.034" y1="24.1357" x2="19.1867" y2="219.845" gradientUnits="userSpaceOnUse">
<stop stop-color="#C1272D"/>
<stop offset="1" stop-color="#C1272D" stop-opacity="0.8"/>
</linearGradient>
</defs>
</svg>
