<svg width="48" height="48" viewBox="0 0 48 48" fill="none" xmlns="http://www.w3.org/2000/svg">
<path d="M24 44C12.9956 44 4 35.0044 4 24C4 12.9956 12.9956 4 24 4C35.0044 4 44 12.9956 44 24C44.0873 35.0044 35.0917 44 24 44ZM24 6.09607C14.131 6.09607 6.18341 14.131 6.18341 23.9127C6.18341 33.6943 14.2183 41.7293 24 41.7293C33.7817 41.7293 41.8166 33.6943 41.8166 23.9127C41.8166 14.131 33.869 6.09607 24 6.09607Z" fill="#C1272D"/>
<path d="M30.2869 34.2185L22.8633 26.7949V13.2578H25.2214V25.8342L31.9462 32.5591L30.2869 34.2185Z" fill="#C1272D"/>
</svg>
