<svg width="17" height="17" viewBox="0 0 17 17" fill="none" xmlns="http://www.w3.org/2000/svg">
<path d="M9.41423 9.00008L15.707 2.70708C15.8025 2.61483 15.8787 2.50449 15.9311 2.38249C15.9835 2.26048 16.0111 2.12926 16.0122 1.99648C16.0134 1.8637 15.9881 1.73202 15.9378 1.60913C15.8875 1.48623 15.8133 1.37458 15.7194 1.28069C15.6255 1.18679 15.5138 1.11254 15.3909 1.06226C15.268 1.01198 15.1364 0.986677 15.0036 0.987831C14.8708 0.988985 14.7396 1.01657 14.6176 1.06898C14.4956 1.12139 14.3852 1.19757 14.293 1.29308L7.99998 7.58583L1.70722 1.29308C1.519 1.10899 1.26578 1.00656 1.0025 1.00801C0.739231 1.00946 0.48715 1.11468 0.300968 1.30083C0.114786 1.48697 0.0095251 1.73904 0.00802865 2.00231C0.00653221 2.26558 0.108921 2.51883 0.292975 2.70708L6.58598 9.00008L0.292975 15.2931C0.198418 15.3856 0.123146 15.4959 0.0715181 15.6177C0.0198899 15.7394 -0.00706895 15.8702 -0.00779733 16.0025C-0.00852572 16.1347 0.0169909 16.2658 0.0672747 16.3882C0.117559 16.5105 0.19161 16.6216 0.285143 16.7152C0.378676 16.8087 0.489831 16.8827 0.612172 16.933C0.734513 16.9832 0.86561 17.0087 0.997872 17.008C1.13013 17.0072 1.26093 16.9802 1.38269 16.9286C1.50445 16.8769 1.61476 16.8017 1.70722 16.7071L7.99998 10.4143L14.293 16.7071C14.4882 16.9023 14.7442 17.0001 15 17.0001C15.2557 17.0001 15.512 16.9023 15.707 16.7071C15.8944 16.5196 15.9998 16.2652 15.9998 16.0001C15.9998 15.7349 15.8944 15.4806 15.707 15.2931L9.41423 9.00008Z" fill="#8A8A8A"/>
</svg>
