<svg xmlns="http://www.w3.org/2000/svg" width="24" height="24" viewBox="0 0 24 24" fill="none">
  <path d="M2.25 3C1.00781 3 0 3.97727 0 5.18182C0 5.86818 0.332812 6.51364 0.9 6.92727L11.1 14.3455C11.6344 14.7318 12.3656 14.7318 12.9 14.3455L23.1 6.92727C23.6672 6.51364 24 5.86818 24 5.18182C24 3.97727 22.9922 3 21.75 3H2.25ZM0 8.09091V17.5455C0 19.15 1.34531 20.4545 3 20.4545H21C22.6547 20.4545 24 19.15 24 17.5455V8.09091L13.8 15.5091C12.7312 16.2864 11.2688 16.2864 10.2 15.5091L0 8.09091Z" fill="#C1272D"/>
</svg>
