<svg width="20" height="20" viewBox="0 0 20 20" fill="none" xmlns="http://www.w3.org/2000/svg">
<g id="Email">
<path id="Vector" d="M16.6922 16.6629H3.30469C2.60046 16.6621 1.92531 16.3819 1.42735 15.884C0.929384 15.386 0.649265 14.7109 0.648438 14.0066V5.99414C0.649265 5.28991 0.929384 4.61477 1.42735 4.1168C1.92531 3.61884 2.60046 3.33872 3.30469 3.33789H16.6922C17.3964 3.33872 18.0716 3.61884 18.5695 4.1168C19.0675 4.61477 19.3476 5.28991 19.3484 5.99414V14.0066C19.3476 14.7109 19.0675 15.386 18.5695 15.884C18.0716 16.3819 17.3964 16.6621 16.6922 16.6629ZM3.30469 4.27539C2.84885 4.27539 2.41168 4.45647 2.08935 4.7788C1.76702 5.10113 1.58594 5.5383 1.58594 5.99414V14.0066C1.58594 14.4625 1.76702 14.8997 2.08935 15.222C2.41168 15.5443 2.84885 15.7254 3.30469 15.7254H16.6922C17.148 15.7254 17.5852 15.5443 17.9075 15.222C18.2299 14.8997 18.4109 14.4625 18.4109 14.0066V5.99414C18.4109 5.5383 18.2299 5.10113 17.9075 4.7788C17.5852 4.45647 17.148 4.27539 16.6922 4.27539H3.30469Z" fill="#C1272D"/>
<path id="Vector_2" d="M10.0018 11.9017C9.42355 11.9026 8.86075 11.715 8.39869 11.3673L1.10181 5.84853C1.05026 5.81234 1.00652 5.76614 0.97322 5.71268C0.939918 5.65922 0.917732 5.59959 0.907988 5.53737C0.898243 5.47514 0.901139 5.41158 0.916503 5.3505C0.931868 5.28942 0.959385 5.23206 0.997411 5.18185C1.03544 5.13163 1.08319 5.0896 1.13783 5.05826C1.19246 5.02691 1.25285 5.0069 1.31539 4.99942C1.37793 4.99193 1.44134 4.99713 1.50182 5.01469C1.56231 5.03226 1.61864 5.06183 1.66744 5.10165L8.96431 10.6267C9.26396 10.8503 9.62788 10.9712 10.0018 10.9712C10.3757 10.9712 10.7397 10.8503 11.0393 10.6267L18.3362 5.10165C18.385 5.06183 18.4413 5.03226 18.5018 5.01469C18.5623 4.99713 18.6257 4.99193 18.6882 4.99942C18.7508 5.0069 18.8112 5.02691 18.8658 5.05826C18.9204 5.0896 18.9682 5.13163 19.0062 5.18185C19.0442 5.23206 19.0718 5.28942 19.0871 5.3505C19.1025 5.41158 19.1054 5.47514 19.0956 5.53737C19.0859 5.59959 19.0637 5.65922 19.0304 5.71268C18.9971 5.76614 18.9534 5.81234 18.9018 5.84853L11.6049 11.3673C11.1429 11.715 10.5801 11.9026 10.0018 11.9017Z" fill="#C1272D"/>
<path id="Vector_3" d="M1.30147 15.3551C1.2064 15.3553 1.11353 15.3265 1.03519 15.2726C0.956855 15.2188 0.896748 15.1424 0.862846 15.0535C0.828945 14.9647 0.822853 14.8677 0.845379 14.7753C0.867905 14.683 0.917984 14.5996 0.98897 14.5364L6.73897 9.40827C6.8318 9.32539 6.95374 9.28278 7.07799 9.28981C7.20223 9.29685 7.31859 9.35295 7.40147 9.44577C7.48435 9.5386 7.52696 9.66055 7.51993 9.78479C7.5129 9.90903 7.4568 10.0254 7.36397 10.1083L1.61397 15.2364C1.52858 15.3141 1.41691 15.3565 1.30147 15.3551ZM18.6952 15.3551C18.5798 15.3565 18.4681 15.3141 18.3827 15.2364L12.6327 10.1083C12.5399 10.0254 12.4838 9.90903 12.4768 9.78479C12.4697 9.66055 12.5123 9.5386 12.5952 9.44577C12.6781 9.35295 12.7945 9.29685 12.9187 9.28981C13.0429 9.28278 13.1649 9.32539 13.2577 9.40827L19.0046 14.5364C19.0756 14.5996 19.1257 14.683 19.1482 14.7753C19.1707 14.8677 19.1646 14.9647 19.1307 15.0535C19.0968 15.1424 19.0367 15.2188 18.9584 15.2726C18.88 15.3265 18.7872 15.3553 18.6921 15.3551H18.6952Z" fill="#C1272D"/>
</g>
</svg>
