<svg width="16" height="16" viewBox="0 0 16 16" fill="none" xmlns="http://www.w3.org/2000/svg">
<g id="Email">
<path id="Vector" d="M13.3545 13.3299H2.64453C2.08115 13.3293 1.54103 13.1052 1.14266 12.7068C0.744289 12.3084 0.520193 11.7683 0.519531 11.2049V4.79492C0.520193 4.23154 0.744289 3.69142 1.14266 3.29305C1.54103 2.89468 2.08115 2.67058 2.64453 2.66992H13.3545C13.9179 2.67058 14.458 2.89468 14.8564 3.29305C15.2548 3.69142 15.4789 4.23154 15.4795 4.79492V11.2049C15.4789 11.7683 15.2548 12.3084 14.8564 12.7068C14.458 13.1052 13.9179 13.3293 13.3545 13.3299ZM2.64453 3.41992C2.27986 3.41992 1.93012 3.56479 1.67226 3.82265C1.4144 4.08051 1.26953 4.43025 1.26953 4.79492V11.2049C1.26953 11.5696 1.4144 11.9193 1.67226 12.1772C1.93012 12.4351 2.27986 12.5799 2.64453 12.5799H13.3545C13.7192 12.5799 14.0689 12.4351 14.3268 12.1772C14.5847 11.9193 14.7295 11.5696 14.7295 11.2049V4.79492C14.7295 4.43025 14.5847 4.08051 14.3268 3.82265C14.0689 3.56479 13.7192 3.41992 13.3545 3.41992H2.64453Z" fill="white"/>
<path id="Vector_2" d="M7.99832 9.52054C7.53572 9.52127 7.08548 9.37119 6.71582 9.09304L0.878325 4.67804C0.83708 4.64909 0.802092 4.61213 0.775451 4.56936C0.748809 4.52659 0.731061 4.47889 0.723265 4.42911C0.715469 4.37933 0.717786 4.32849 0.730078 4.27962C0.742369 4.23075 0.764383 4.18486 0.794804 4.1447C0.825225 4.10453 0.86343 4.0709 0.907136 4.04582C0.950843 4.02075 0.999154 4.00474 1.04919 3.99875C1.09922 3.99276 1.14994 3.99692 1.19833 4.01097C1.24672 4.02502 1.29178 4.04869 1.33082 4.08054L7.16832 8.50054C7.40804 8.67949 7.69918 8.77617 7.99832 8.77617C8.29747 8.77617 8.5886 8.67949 8.82832 8.50054L14.6658 4.08054C14.7049 4.04869 14.7499 4.02502 14.7983 4.01097C14.8467 3.99692 14.8974 3.99276 14.9475 3.99875C14.9975 4.00474 15.0458 4.02075 15.0895 4.04582C15.1332 4.0709 15.1714 4.10453 15.2018 4.1447C15.2323 4.18486 15.2543 4.23075 15.2666 4.27962C15.2789 4.32849 15.2812 4.37933 15.2734 4.42911C15.2656 4.47889 15.2478 4.52659 15.2212 4.56936C15.1946 4.61213 15.1596 4.64909 15.1183 4.67804L9.28082 9.09304C8.91117 9.37119 8.46093 9.52127 7.99832 9.52054Z" fill="white"/>
<path id="Vector_3" d="M1.04352 12.2845C0.967463 12.2846 0.89317 12.2616 0.830499 12.2185C0.767828 12.1754 0.719742 12.1143 0.692621 12.0432C0.6655 11.9722 0.660626 11.8945 0.678647 11.8207C0.696668 11.7468 0.736731 11.6801 0.79352 11.6295L5.39352 7.52701C5.46778 7.4607 5.56534 7.42661 5.66473 7.43224C5.76413 7.43787 5.85722 7.48275 5.92352 7.55701C5.98982 7.63127 6.02391 7.72883 6.01829 7.82822C6.01266 7.92762 5.96778 8.0207 5.89352 8.08701L1.29352 12.1895C1.22521 12.2517 1.13587 12.2856 1.04352 12.2845ZM14.9585 12.2845C14.8662 12.2856 14.7768 12.2517 14.7085 12.1895L10.1085 8.08701C10.0343 8.0207 9.98938 7.92762 9.98375 7.82822C9.97813 7.72883 10.0122 7.63127 10.0785 7.55701C10.1448 7.48275 10.2379 7.43787 10.3373 7.43224C10.4367 7.42661 10.5343 7.4607 10.6085 7.52701L15.206 11.6295C15.2628 11.6801 15.3029 11.7468 15.3209 11.8207C15.3389 11.8945 15.334 11.9722 15.3069 12.0432C15.2798 12.1143 15.2317 12.1754 15.169 12.2185C15.1064 12.2616 15.0321 12.2846 14.956 12.2845H14.9585Z" fill="white"/>
</g>
</svg>
