<svg width="56" height="56" viewBox="0 0 56 56" fill="none" xmlns="http://www.w3.org/2000/svg">
<path fill-rule="evenodd" clip-rule="evenodd" d="M37.495 37.846L39.1517 36.7377C40.2717 35.991 40.75 34.591 40.33 33.3077C40.0383 32.4444 39.3733 31.7444 38.5217 31.4177C37.67 31.091 36.7133 31.161 35.92 31.616C34.345 32.5144 32.21 33.7277 30.915 34.4743C29.83 35.0927 29.165 36.2477 29.165 37.496V50.1544C29.165 50.796 29.69 51.321 30.3317 51.321C30.9733 51.321 31.4983 50.796 31.4983 50.1544V37.496C31.4983 37.0877 31.72 36.7027 32.07 36.5044L37.075 33.646C37.2617 33.541 37.4833 33.5177 37.6933 33.5993C37.8917 33.681 38.055 33.8444 38.1133 34.0427C38.2067 34.3227 38.1017 34.626 37.8567 34.7894L35.5117 36.3527C35.185 36.5744 34.9867 36.936 34.9867 37.321V39.6544C34.9867 40.0394 35.185 40.4127 35.5117 40.6227C35.8383 40.8444 36.2467 40.8794 36.6083 40.7277C36.6083 40.7277 40.33 39.176 42.3483 38.336C43.515 37.846 44.3317 36.796 44.53 35.5477L45.2417 30.9044C45.2883 30.566 45.5917 30.3094 45.93 30.3094C46.1283 30.3094 46.315 30.391 46.4433 30.5194C46.5833 30.6593 46.6533 30.846 46.6533 31.0327V39.631C46.6533 40.5877 46.0933 41.451 45.2183 41.8477L38.2183 44.9627C36.9583 45.5227 36.1533 46.771 36.1533 48.136V50.131C36.1533 50.7727 36.6783 51.2977 37.32 51.2977C37.9617 51.2977 38.4867 50.7727 38.4867 50.131V48.136C38.4867 47.681 38.755 47.2727 39.1633 47.0977L46.1633 43.9827C47.8783 43.2243 48.9867 41.521 48.9867 39.631V31.0327C48.9867 30.216 48.66 29.4344 48.0883 28.8627C47.5167 28.291 46.735 27.9643 45.9183 27.9643C44.425 27.9643 43.1533 29.061 42.92 30.531C42.71 31.9077 42.4067 33.8794 42.2083 35.1744C42.1383 35.6177 41.8467 35.991 41.4383 36.1544L37.4833 37.7994L37.495 37.846ZM18.5017 37.846L14.5467 36.201C14.1383 36.026 13.8467 35.6527 13.7767 35.221L13.065 30.5777C12.8433 29.096 11.5717 28.011 10.0667 28.011C9.25 28.011 8.46833 28.3377 7.89667 28.9094C7.325 29.481 6.99833 30.2627 6.99833 31.0793V39.6777C6.99833 41.556 8.10667 43.2594 9.82167 44.0294L16.8217 47.1444C17.23 47.331 17.4983 47.7394 17.4983 48.1827V50.1777C17.4983 50.8194 18.0233 51.3443 18.665 51.3443C19.3067 51.3443 19.8317 50.8194 19.8317 50.1777V48.1827C19.8317 46.806 19.0267 45.5694 17.7667 45.0094L10.7667 41.8944C9.89167 41.5094 9.33167 40.6343 9.33167 39.6777V31.0793C9.33167 30.881 9.41333 30.6944 9.54167 30.566C9.67 30.4377 9.86833 30.356 10.055 30.356C10.3933 30.356 10.6967 30.6127 10.7433 30.951L11.455 35.5944C11.6417 36.8427 12.47 37.8927 13.6367 38.3827C15.655 39.2227 19.3767 40.7744 19.3767 40.7744C19.7383 40.926 20.1467 40.8794 20.4733 40.6694C20.8 40.4477 20.9983 40.086 20.9983 39.701V37.3677C20.9983 36.9827 20.8 36.6094 20.4733 36.3994L18.1283 34.836C17.8833 34.6727 17.7783 34.3694 17.8717 34.0893C17.9417 33.891 18.0933 33.7277 18.2917 33.646C18.49 33.5644 18.7233 33.5877 18.91 33.6927L23.915 36.551C24.265 36.7494 24.4867 37.1344 24.4867 37.5427V50.201C24.4867 50.8427 25.0117 51.3677 25.6533 51.3677C26.295 51.3677 26.82 50.8427 26.82 50.201V37.5427C26.82 36.2944 26.155 35.1394 25.07 34.521C23.7633 33.7744 21.6283 32.561 20.065 31.6627C19.2717 31.2077 18.315 31.1377 17.4633 31.4643C16.6117 31.791 15.9467 32.4794 15.655 33.3544C15.2233 34.6377 15.7133 36.0377 16.8333 36.7844L18.49 37.8927L18.5017 37.846ZM24.4983 20.9993C23.8567 20.9993 23.3317 21.5244 23.3317 22.166C23.3317 22.8077 23.8567 23.3327 24.4983 23.3327C24.4983 25.2694 26.0617 26.8327 27.9983 26.8327C29.935 26.8327 31.4983 25.2694 31.4983 23.3327C32.14 23.3327 32.665 22.8077 32.665 22.166C32.665 21.5244 32.14 20.9993 31.4983 20.9993V20.2177C34.2517 18.911 36.165 16.0877 36.165 12.8327C36.165 8.32935 32.5017 4.66602 27.9983 4.66602C23.495 4.66602 19.8317 8.32935 19.8317 12.8327C19.8317 16.0877 21.745 18.8993 24.4983 20.2177V20.9993ZM14.1383 11.0827C13.9517 10.8143 13.6717 10.6277 13.345 10.581C12.6217 10.476 11.875 10.476 11.1517 10.581C10.825 10.6277 10.5333 10.8143 10.3583 11.0827L9.775 11.946C9.775 11.946 9.705 11.981 9.65833 11.9927L8.63167 11.7943C8.305 11.736 7.97833 11.806 7.71 12.0043C7.115 12.4477 6.60167 12.9727 6.15833 13.556C5.96 13.8243 5.89 14.151 5.94833 14.4777L6.14667 15.5043C6.14667 15.5043 6.11167 15.5744 6.1 15.6094L5.23667 16.1927C4.96833 16.3793 4.78167 16.6594 4.735 16.986C4.63 17.7094 4.63 18.456 4.735 19.1794C4.78167 19.506 4.96833 19.7977 5.23667 19.9727L6.1 20.556C6.1 20.556 6.135 20.626 6.14667 20.6727L5.94833 21.6994C5.89 22.026 5.94833 22.3527 6.15833 22.621C6.60167 23.216 7.12667 23.7294 7.71 24.1727C7.97833 24.371 8.305 24.441 8.63167 24.3827L9.65833 24.1843C9.65833 24.1843 9.72833 24.2194 9.76333 24.231L10.3467 25.0944C10.5333 25.3627 10.8133 25.5494 11.14 25.596C11.8633 25.701 12.61 25.701 13.3333 25.596C13.66 25.5494 13.9517 25.3627 14.1267 25.0944L14.71 24.231C14.71 24.231 14.78 24.196 14.8267 24.1843L15.8533 24.3827C16.18 24.441 16.5067 24.371 16.775 24.1727C17.37 23.7294 17.8833 23.2043 18.3267 22.621C18.525 22.3527 18.595 22.026 18.5367 21.6994L18.3383 20.6727C18.3383 20.6727 18.3733 20.6027 18.385 20.5677L19.2483 19.9843C19.5167 19.7977 19.7033 19.5177 19.75 19.191C19.855 18.4677 19.855 17.721 19.75 16.9977C19.7033 16.671 19.5167 16.3794 19.2483 16.2044L18.385 15.621C18.385 15.621 18.35 15.551 18.3383 15.5043L18.5367 14.4777C18.595 14.151 18.525 13.8243 18.3267 13.556C17.8833 12.961 17.3583 12.4477 16.775 12.0043C16.5067 11.806 16.18 11.736 15.8533 11.7943L14.8267 11.9927C14.8267 11.9927 14.7567 11.9577 14.7217 11.946L14.1383 11.0827ZM29.165 23.3327C29.165 23.9743 28.64 24.4993 27.9983 24.4993C27.3567 24.4993 26.8317 23.9743 26.8317 23.3327H29.165ZM45.3467 11.0943C45.1367 10.721 44.7517 10.4993 44.3317 10.4993C43.9117 10.4993 43.515 10.7327 43.3167 11.0943L41.59 14.1977L38.2533 14.956C37.8567 15.0493 37.53 15.341 37.4017 15.726C37.2733 16.111 37.355 16.5427 37.6233 16.846L39.9217 19.541L39.5717 23.146C39.5367 23.566 39.7117 23.9627 40.0617 24.2077C40.4 24.4527 40.8433 24.4877 41.2283 24.3127L44.3433 22.8777L47.4583 24.3127C47.8317 24.4877 48.2867 24.441 48.625 24.2077C48.9633 23.9627 49.15 23.566 49.115 23.146L48.765 19.541L51.0633 16.846C51.3317 16.531 51.4133 16.111 51.285 15.726C51.1567 15.341 50.83 15.0493 50.4333 14.956L47.0967 14.1977L45.37 11.0943H45.3467ZM12.5167 12.8327L13.0067 13.556C13.1467 13.766 13.3567 13.9293 13.6017 14.011C13.8 14.0694 13.9867 14.151 14.1733 14.2443C14.4067 14.361 14.6633 14.396 14.92 14.3493L15.7717 14.186C15.9 14.3027 16.0283 14.431 16.145 14.5593L15.9817 15.411C15.935 15.6677 15.9817 15.9243 16.0867 16.1577C16.18 16.3443 16.2617 16.531 16.32 16.7294C16.4017 16.9743 16.565 17.1844 16.775 17.3244L17.4983 17.8144C17.4983 17.9894 17.4983 18.176 17.4983 18.351L16.775 18.841C16.565 18.981 16.4017 19.191 16.32 19.436C16.2617 19.6343 16.18 19.821 16.0867 20.0077C15.97 20.241 15.935 20.4977 15.9817 20.7544L16.145 21.606C16.0283 21.7344 15.9 21.8627 15.7717 21.9794L14.92 21.816C14.6633 21.7694 14.4067 21.816 14.1733 21.921C13.9867 22.0144 13.8 22.096 13.6017 22.1544C13.3567 22.236 13.1467 22.3993 13.0067 22.6093L12.5167 23.3327C12.3417 23.3327 12.155 23.3327 11.98 23.3327L11.49 22.6093C11.35 22.3993 11.14 22.236 10.895 22.1544C10.6967 22.096 10.51 22.0144 10.3233 21.921C10.09 21.8044 9.83333 21.7694 9.57667 21.816L8.725 21.9794C8.59667 21.8627 8.46833 21.7344 8.35167 21.606L8.515 20.7544C8.56167 20.4977 8.52667 20.241 8.41 20.0077C8.31667 19.821 8.235 19.6343 8.17667 19.436C8.095 19.191 7.93167 18.981 7.72167 18.841L6.99833 18.351C6.99833 18.176 6.99833 17.9894 6.99833 17.8144L7.72167 17.3244C7.93167 17.1844 8.095 16.9743 8.17667 16.7294C8.235 16.531 8.31667 16.3443 8.41 16.1577C8.52667 15.9243 8.56167 15.6677 8.515 15.411L8.35167 14.5593C8.46833 14.431 8.59667 14.3027 8.725 14.186L9.57667 14.3493C9.83333 14.396 10.09 14.361 10.3233 14.2443C10.51 14.151 10.6967 14.0694 10.895 14.011C11.14 13.9293 11.35 13.766 11.49 13.556L11.98 12.8327H12.5167ZM44.3317 14.0577L45.3 15.7843C45.4633 16.076 45.7433 16.286 46.0583 16.356L48.03 16.7993L46.665 18.4093C46.455 18.6543 46.3617 18.9577 46.385 19.2844L46.5833 21.361L44.8217 20.5444C44.5067 20.4044 44.1567 20.4044 43.8417 20.5444L42.08 21.361L42.2783 19.2844C42.3133 18.9694 42.2083 18.6543 41.9983 18.4093L40.6333 16.7993L42.605 16.356C42.9317 16.286 43.2 16.076 43.3633 15.7843L44.3317 14.0577ZM12.2483 15.1543C10.6383 15.1543 9.33167 16.461 9.33167 18.071C9.33167 19.681 10.6383 20.9877 12.2483 20.9877C13.8583 20.9877 15.165 19.681 15.165 18.071C15.165 16.461 13.8583 15.1543 12.2483 15.1543ZM29.165 20.9877H26.8317V19.4243C26.8317 18.9344 26.5167 18.491 26.05 18.3277C23.7867 17.5227 22.165 15.3643 22.165 12.821C22.165 9.60102 24.7783 6.98768 27.9983 6.98768C31.2183 6.98768 33.8317 9.60102 33.8317 12.821C33.8317 15.3643 32.21 17.5227 29.9467 18.3277C29.48 18.491 29.165 18.9344 29.165 19.4243V20.9877ZM12.2483 17.4877C12.575 17.4877 12.8317 17.7443 12.8317 18.071C12.8317 18.3977 12.575 18.6543 12.2483 18.6543C11.9217 18.6543 11.665 18.3977 11.665 18.071C11.665 17.7443 11.9217 17.4877 12.2483 17.4877ZM26.8317 14.326V16.321C26.8317 16.9627 27.3567 17.4877 27.9983 17.4877C28.64 17.4877 29.165 16.9627 29.165 16.321V14.326C30.1917 13.871 30.915 12.8443 30.915 11.6543C30.915 10.0443 29.6083 8.73768 27.9983 8.73768C26.3883 8.73768 25.0817 10.0443 25.0817 11.6543C25.0817 12.8443 25.805 13.8827 26.8317 14.326ZM27.9983 11.071C28.325 11.071 28.5817 11.3277 28.5817 11.6543C28.5817 11.981 28.325 12.2377 27.9983 12.2377C27.6717 12.2377 27.415 11.981 27.415 11.6543C27.415 11.3277 27.6717 11.071 27.9983 11.071Z" fill="#C1272D"/>
</svg>
