<svg width="24" height="24" viewBox="0 0 24 24" fill="none" xmlns="http://www.w3.org/2000/svg">
<g clip-path="url(#clip0_1591_6176)">
<path d="M0.75 6H23.25C23.4489 6 23.6397 5.92098 23.7803 5.78033C23.921 5.63968 24 5.44891 24 5.25C24 5.05109 23.921 4.86032 23.7803 4.71967C23.6397 4.57902 23.4489 4.5 23.25 4.5H0.75C0.551088 4.5 0.360322 4.57902 0.21967 4.71967C0.0790176 4.86032 0 5.05109 0 5.25C0 5.44891 0.0790176 5.63968 0.21967 5.78033C0.360322 5.92098 0.551088 6 0.75 6Z" fill="white"/>
<path d="M23.25 11.25H0.75C0.551088 11.25 0.360322 11.329 0.21967 11.4697C0.0790176 11.6103 0 11.8011 0 12C0 12.1989 0.0790176 12.3897 0.21967 12.5303C0.360322 12.671 0.551088 12.75 0.75 12.75H23.25C23.4489 12.75 23.6397 12.671 23.7803 12.5303C23.921 12.3897 24 12.1989 24 12C24 11.8011 23.921 11.6103 23.7803 11.4697C23.6397 11.329 23.4489 11.25 23.25 11.25Z" fill="white"/>
<path d="M23.25 18H0.75C0.551088 18 0.360322 18.079 0.21967 18.2197C0.0790176 18.3603 0 18.5511 0 18.75C0 18.9489 0.0790176 19.1397 0.21967 19.2803C0.360322 19.421 0.551088 19.5 0.75 19.5H23.25C23.4489 19.5 23.6397 19.421 23.7803 19.2803C23.921 19.1397 24 18.9489 24 18.75C24 18.5511 23.921 18.3603 23.7803 18.2197C23.6397 18.079 23.4489 18 23.25 18Z" fill="white"/>
</g>
<defs>
<clipPath id="clip0_1591_6176">
<rect width="24" height="24" fill="white"/>
</clipPath>
</defs>
</svg>
