<svg width="56" height="56" viewBox="0 0 56 56" fill="none" xmlns="http://www.w3.org/2000/svg">
<path d="M43.064 12.3449C34.2943 3.56518 34.8593 4.10016 34.6893 4.04016C34.5193 3.98017 35.7492 4.00517 14.4499 4.00517C13.8006 4.00649 13.1782 4.26503 12.719 4.72419C12.2599 5.18335 12.0013 5.80573 12 6.45509V42.3139C12.0013 42.9641 12.2606 43.5873 12.7208 44.0466C13.181 44.5059 13.8047 44.7638 14.4549 44.7638H28.3545V51.5036C28.3545 51.6362 28.4072 51.7634 28.5009 51.8572C28.5947 51.9509 28.7219 52.0036 28.8545 52.0036C29.0195 52.0036 28.7945 52.0936 32.4743 50.2087L35.8642 51.9486C35.9409 51.9905 36.0271 52.0117 36.1144 52.0099C36.2018 52.0081 36.2871 51.9835 36.3619 51.9385C36.4368 51.8935 36.4985 51.8297 36.541 51.7534C36.5836 51.6771 36.6053 51.591 36.6042 51.5036V44.7638H40.7541C41.4043 44.7638 42.028 44.5059 42.4882 44.0466C42.9485 43.5873 43.2077 42.9641 43.209 42.3139C43.209 10.7049 43.289 12.5799 43.064 12.3449ZM35.0193 5.71011L41.5191 12.2099H36.4692C36.0851 12.2086 35.717 12.0554 35.4454 11.7838C35.1738 11.5121 35.0206 11.1441 35.0193 10.7599V5.71011ZM31.4094 44.7638C30.2661 44.5611 29.2044 44.0363 28.349 43.251C27.4937 42.4657 26.8803 41.4526 26.5809 40.3307C26.2814 39.2088 26.3084 38.0248 26.6587 36.9177C27.0089 35.8107 27.6679 34.8266 28.5581 34.0811C29.4484 33.3356 30.5329 32.8597 31.6842 32.7093C32.8356 32.5589 34.006 32.7403 35.0579 33.232C36.1097 33.7238 36.9994 34.5056 37.6222 35.4856C38.2451 36.4655 38.5754 37.6029 38.5742 38.764C38.5732 39.6547 38.3773 40.5344 38 41.3412C37.6228 42.1481 37.0734 42.8625 36.3906 43.4343C35.7077 44.0062 34.9079 44.4215 34.0473 44.6512C33.1868 44.8809 32.2864 44.9193 31.4094 44.7638ZM35.6042 50.6837L32.7143 49.1837C32.6426 49.1491 32.564 49.1312 32.4843 49.1312C32.4047 49.1312 32.3261 49.1491 32.2544 49.1837L29.3644 50.6837V45.1338C30.3352 45.6112 31.4026 45.8595 32.4843 45.8595C33.5661 45.8595 34.6335 45.6112 35.6042 45.1338V50.6837ZM40.7541 43.7639H37.5092C38.498 42.7693 39.1701 41.5042 39.4407 40.1281C39.7113 38.752 39.5683 37.3266 39.0297 36.0317C38.4912 34.7368 37.5812 33.6304 36.4145 32.8521C35.2478 32.0738 33.8768 31.6584 32.4743 31.6584C31.0719 31.6584 29.7009 32.0738 28.5342 32.8521C27.3675 33.6304 26.4575 34.7368 25.919 36.0317C25.3804 37.3266 25.2374 38.752 25.508 40.1281C25.7786 41.5042 26.4507 42.7693 27.4395 43.7639H14.4399C14.2491 43.7645 14.06 43.7275 13.8835 43.6549C13.707 43.5824 13.5466 43.4757 13.4114 43.341C13.2762 43.2063 13.169 43.0462 13.0958 42.87C13.0226 42.6937 12.985 42.5048 12.985 42.3139V6.45509C12.985 6.26341 13.023 6.07363 13.0968 5.89673C13.1706 5.71983 13.2787 5.55931 13.4149 5.42447C13.5512 5.28964 13.7128 5.18315 13.8904 5.11117C14.0681 5.03919 14.2583 5.00315 14.4499 5.00513H34.0193V10.7449C34.0193 11.0667 34.0827 11.3853 34.2058 11.6825C34.3289 11.9797 34.5094 12.2498 34.7369 12.4773C35.1963 12.9368 35.8195 13.1949 36.4692 13.1949H42.209V42.3139C42.209 42.5048 42.1714 42.6937 42.0982 42.87C42.025 43.0462 41.9178 43.2063 41.7826 43.341C41.6474 43.4757 41.487 43.5824 41.3105 43.6549C41.134 43.7275 40.9449 43.7645 40.7541 43.7639Z" fill="#C1272D"/>
<path d="M23.9871 31.659H17.1523C17.0197 31.659 16.8926 31.7117 16.7988 31.8055C16.705 31.8992 16.6523 32.0264 16.6523 32.159C16.6523 32.2916 16.705 32.4188 16.7988 32.5126C16.8926 32.6063 17.0197 32.659 17.1523 32.659H23.9871C24.1197 32.659 24.2469 32.6063 24.3407 32.5126C24.4344 32.4188 24.4871 32.2916 24.4871 32.159C24.4871 32.0264 24.4344 31.8992 24.3407 31.8055C24.2469 31.7117 24.1197 31.659 23.9871 31.659ZM38.0617 16.0845H20.1922C20.0596 16.0845 19.9325 16.1372 19.8387 16.231C19.7449 16.3247 19.6922 16.4519 19.6922 16.5845C19.6922 16.7171 19.7449 16.8443 19.8387 16.9381C19.9325 17.0318 20.0596 17.0845 20.1922 17.0845H38.0617C38.1943 17.0845 38.3214 17.0318 38.4152 16.9381C38.509 16.8443 38.5616 16.7171 38.5616 16.5845C38.5616 16.4519 38.509 16.3247 38.4152 16.231C38.3214 16.1372 38.1943 16.0845 38.0617 16.0845ZM38.0617 19.1994H17.1523C17.0197 19.1994 16.8926 19.2521 16.7988 19.3459C16.705 19.4396 16.6523 19.5668 16.6523 19.6994C16.6523 19.832 16.705 19.9592 16.7988 20.053C16.8926 20.1467 17.0197 20.1994 17.1523 20.1994H38.0617C38.1943 20.1994 38.3214 20.1467 38.4152 20.053C38.509 19.9592 38.5616 19.832 38.5616 19.6994C38.5616 19.5668 38.509 19.4396 38.4152 19.3459C38.3214 19.2521 38.1943 19.1994 38.0617 19.1994ZM38.0617 22.3143H17.1523C17.0197 22.3143 16.8926 22.367 16.7988 22.4608C16.705 22.5545 16.6523 22.6817 16.6523 22.8143C16.6523 22.9469 16.705 23.0741 16.7988 23.1679C16.8926 23.2616 17.0197 23.3143 17.1523 23.3143H38.0617C38.1943 23.3143 38.3214 23.2616 38.4152 23.1679C38.509 23.0741 38.5616 22.9469 38.5616 22.8143C38.5616 22.6817 38.509 22.5545 38.4152 22.4608C38.3214 22.367 38.1943 22.3143 38.0617 22.3143ZM38.0617 25.4292H20.1922C20.0596 25.4292 19.9325 25.4819 19.8387 25.5757C19.7449 25.6694 19.6922 25.7966 19.6922 25.9292C19.6922 26.0618 19.7449 26.189 19.8387 26.2828C19.9325 26.3765 20.0596 26.4292 20.1922 26.4292H38.0617C38.1943 26.4292 38.3214 26.3765 38.4152 26.2828C38.509 26.189 38.5616 26.0618 38.5616 25.9292C38.5616 25.7966 38.509 25.6694 38.4152 25.5757C38.3214 25.4819 38.1943 25.4292 38.0617 25.4292ZM38.0617 28.5441H17.1523C17.0197 28.5441 16.8926 28.5968 16.7988 28.6906C16.705 28.7843 16.6523 28.9115 16.6523 29.0441C16.6523 29.1767 16.705 29.3039 16.7988 29.3977C16.8926 29.4914 17.0197 29.5441 17.1523 29.5441H38.0617C38.1943 29.5441 38.3214 29.4914 38.4152 29.3977C38.509 29.3039 38.5616 29.1767 38.5616 29.0441C38.5616 28.9115 38.509 28.7843 38.4152 28.6906C38.3214 28.5968 38.1943 28.5441 38.0617 28.5441ZM21.3972 39.0038H17.1523C17.0197 39.0038 16.8926 39.0565 16.7988 39.1502C16.705 39.244 16.6523 39.3712 16.6523 39.5038C16.6523 39.6364 16.705 39.7636 16.7988 39.8573C16.8926 39.9511 17.0197 40.0038 17.1523 40.0038H21.3972C21.5298 40.0038 21.657 39.9511 21.7507 39.8573C21.8445 39.7636 21.8972 39.6364 21.8972 39.5038C21.8972 39.3712 21.8445 39.244 21.7507 39.1502C21.657 39.0565 21.5298 39.0038 21.3972 39.0038ZM17.1523 9.75973H21.3972C21.5298 9.75973 21.657 9.70706 21.7507 9.61329C21.8445 9.51953 21.8972 9.39235 21.8972 9.25975C21.8972 9.12715 21.8445 8.99997 21.7507 8.90621C21.657 8.81244 21.5298 8.75977 21.3972 8.75977H17.1523C17.0197 8.75977 16.8926 8.81244 16.7988 8.90621C16.705 8.99997 16.6523 9.12715 16.6523 9.25975C16.6523 9.39235 16.705 9.51953 16.7988 9.61329C16.8926 9.70706 17.0197 9.75973 17.1523 9.75973Z" fill="#C1272D"/>
<path d="M35.2698 38.7189C35.2698 40.255 34.0245 41.5002 32.4884 41.5002C30.9523 41.5002 29.707 40.255 29.707 38.7189C29.707 37.1828 30.9523 35.9375 32.4884 35.9375C34.0245 35.9375 35.2698 37.1828 35.2698 38.7189Z" stroke="#C1272D"/>
</svg>
