<svg width="24" height="24" viewBox="0 0 24 24" fill="none" xmlns="http://www.w3.org/2000/svg">
<g id="Location">
<path id="Vector" d="M12.5 0C9.98131 0.0028586 7.56659 1.01523 5.78561 2.81501C4.00463 4.61478 3.00283 7.05498 3 9.60025C3 13.5064 5.80606 16.75 8.77838 20.1833C9.71888 21.2706 10.6926 22.395 11.5595 23.5326C11.6704 23.678 11.8129 23.7958 11.976 23.8768C12.139 23.9579 12.3183 24 12.5 24C12.6817 24 12.861 23.9579 13.024 23.8768C13.1871 23.7958 13.3296 23.678 13.4405 23.5326C14.3074 22.395 15.2811 21.2706 16.2216 20.1833C19.1939 16.75 22 13.5064 22 9.60025C21.9972 7.05498 20.9954 4.61478 19.2144 2.81501C17.4334 1.01523 15.0187 0.0028586 12.5 0ZM12.5 13.2003C11.7954 13.2003 11.1066 12.9892 10.5208 12.5936C9.93493 12.198 9.47832 11.6358 9.20868 10.9779C8.93904 10.3201 8.86849 9.59626 9.00595 8.89791C9.14341 8.19956 9.48271 7.55808 9.98093 7.0546C10.4792 6.55112 11.1139 6.20824 11.805 6.06933C12.496 5.93042 13.2123 6.00171 13.8633 6.2742C14.5143 6.54668 15.0707 7.00811 15.4621 7.60014C15.8536 8.19218 16.0625 8.88822 16.0625 9.60025C16.0625 10.5551 15.6872 11.4708 15.0191 12.1459C14.351 12.821 13.4448 13.2003 12.5 13.2003Z" fill="white"/>
</g>
</svg>
