<svg width="16" height="16" viewBox="0 0 16 16" fill="none" xmlns="http://www.w3.org/2000/svg">
<g id="Location">
<path id="Vector" d="M8.0013 1.33398C6.58681 1.33398 5.23026 1.89589 4.23007 2.89608C3.22987 3.89628 2.66797 5.25283 2.66797 6.66732C2.66797 10.2673 7.36797 14.334 7.56797 14.5073C7.68872 14.6106 7.8424 14.6674 8.0013 14.6674C8.1602 14.6674 8.31388 14.6106 8.43464 14.5073C8.66797 14.334 13.3346 10.2673 13.3346 6.66732C13.3346 5.25283 12.7727 3.89628 11.7725 2.89608C10.7723 1.89589 9.41579 1.33398 8.0013 1.33398ZM8.0013 13.1007C6.5813 11.7673 4.0013 8.89398 4.0013 6.66732C4.0013 5.60645 4.42273 4.58904 5.17288 3.83889C5.92302 3.08875 6.94044 2.66732 8.0013 2.66732C9.06217 2.66732 10.0796 3.08875 10.8297 3.83889C11.5799 4.58904 12.0013 5.60645 12.0013 6.66732C12.0013 8.89398 9.4213 11.774 8.0013 13.1007ZM8.0013 4.00065C7.47389 4.00065 6.95831 4.15705 6.51978 4.45007C6.08125 4.74308 5.73946 5.15956 5.53762 5.64683C5.33579 6.1341 5.28298 6.67028 5.38587 7.18756C5.48877 7.70484 5.74274 8.18 6.11568 8.55294C6.48862 8.92588 6.96378 9.17985 7.48106 9.28275C7.99834 9.38564 8.53452 9.33283 9.02179 9.131C9.50906 8.92916 9.92554 8.58737 10.2186 8.14884C10.5116 7.71031 10.668 7.19473 10.668 6.66732C10.668 5.96007 10.387 5.2818 9.88692 4.7817C9.38682 4.2816 8.70855 4.00065 8.0013 4.00065ZM8.0013 8.00065C7.73759 8.00065 7.47981 7.92245 7.26054 7.77594C7.04128 7.62944 6.87038 7.4212 6.76946 7.17756C6.66855 6.93393 6.64214 6.66584 6.69359 6.4072C6.74504 6.14856 6.87202 5.91098 7.05849 5.72451C7.24496 5.53804 7.48254 5.41105 7.74118 5.3596C7.99982 5.30816 8.26791 5.33456 8.51155 5.43548C8.75518 5.5364 8.96342 5.70729 9.10993 5.92656C9.25644 6.14582 9.33464 6.40361 9.33464 6.66732C9.33464 7.02094 9.19416 7.36008 8.94411 7.61013C8.69406 7.86018 8.35492 8.00065 8.0013 8.00065Z" fill="white"/>
</g>
</svg>
