<svg width="38" height="27" viewBox="0 0 38 27" fill="none" xmlns="http://www.w3.org/2000/svg">
<path d="M32.0875 26.421H5.3125C3.90405 26.4194 2.55375 25.8639 1.55782 24.8766C0.561894 23.8892 0.00165409 22.5505 0 21.1542V5.26685C0.00165409 3.8705 0.561894 2.53181 1.55782 1.54444C2.55375 0.557066 3.90405 0.00163988 5.3125 0H32.0875C33.496 0.00163988 34.8463 0.557066 35.8422 1.54444C36.8381 2.53181 37.3983 3.8705 37.4 5.26685V21.1542C37.3983 22.5505 36.8381 23.8892 35.8422 24.8766C34.8463 25.8639 33.496 26.4194 32.0875 26.421ZM5.3125 1.85889C4.40082 1.85889 3.52648 2.21794 2.88182 2.85706C2.23716 3.49618 1.875 4.363 1.875 5.26685V21.1542C1.875 22.058 2.23716 22.9248 2.88182 23.564C3.52648 24.2031 4.40082 24.5621 5.3125 24.5621H32.0875C32.9992 24.5621 33.8735 24.2031 34.5182 23.564C35.1628 22.9248 35.525 22.058 35.525 21.1542V5.26685C35.525 4.363 35.1628 3.49618 34.5182 2.85706C33.8735 2.21794 32.9992 1.85889 32.0875 1.85889H5.3125Z" fill="#C1272D"/>
<path d="M18.6989 16.9776C17.5424 16.9794 16.4168 16.6074 15.4927 15.918L0.898937 4.97538C0.795825 4.90363 0.708356 4.81202 0.641752 4.70601C0.575149 4.60001 0.530777 4.48178 0.511288 4.3584C0.491799 4.23501 0.497591 4.109 0.528319 3.98788C0.559048 3.86676 0.614082 3.75303 0.690135 3.65347C0.766188 3.55391 0.861699 3.47056 0.970965 3.40841C1.08023 3.34626 1.20101 3.30658 1.32609 3.29174C1.45117 3.2769 1.57798 3.2872 1.69896 3.32203C1.81993 3.35686 1.93258 3.41551 2.03019 3.49446L16.6239 14.4495C17.2232 14.893 17.9511 15.1327 18.6989 15.1327C19.4468 15.1327 20.1746 14.893 20.7739 14.4495L35.3677 3.49446C35.4653 3.41551 35.5779 3.35686 35.6989 3.32203C35.8199 3.2872 35.9467 3.2769 36.0718 3.29174C36.1969 3.30658 36.3176 3.34626 36.4269 3.40841C36.5362 3.47056 36.6317 3.55391 36.7077 3.65347C36.7838 3.75303 36.8388 3.86676 36.8696 3.98788C36.9003 4.109 36.9061 4.23501 36.8866 4.3584C36.8671 4.48178 36.8227 4.60001 36.7561 4.70601C36.6895 4.81202 36.602 4.90363 36.4989 4.97538L21.9052 15.918C20.9811 16.6074 19.8555 16.9794 18.6989 16.9776Z" fill="#C1272D"/>
<path d="M1.30607 23.8307C1.11592 23.8309 0.930191 23.7739 0.773513 23.6671C0.616836 23.5603 0.49662 23.4088 0.428818 23.2326C0.361015 23.0565 0.348831 22.8641 0.393883 22.681C0.438935 22.4979 0.539092 22.3326 0.681065 22.2072L12.1811 12.0391C12.3667 11.8748 12.6106 11.7903 12.8591 11.8042C13.1076 11.8182 13.3403 11.9294 13.5061 12.1135C13.6718 12.2975 13.757 12.5393 13.743 12.7857C13.7289 13.032 13.6167 13.2627 13.4311 13.4271L1.93107 23.5952C1.76028 23.7493 1.53694 23.8334 1.30607 23.8307ZM36.0936 23.8307C35.8627 23.8334 35.6394 23.7493 35.4686 23.5952L23.9686 13.4271C23.7829 13.2627 23.6707 13.032 23.6567 12.7857C23.6426 12.5393 23.7278 12.2975 23.8936 12.1135C24.0593 11.9294 24.292 11.8182 24.5405 11.8042C24.789 11.7903 25.0329 11.8748 25.2186 12.0391L36.7123 22.2072C36.8543 22.3326 36.9544 22.4979 36.9995 22.681C37.0446 22.8641 37.0324 23.0565 36.9646 23.2326C36.8968 23.4088 36.7765 23.5603 36.6199 23.6671C36.4632 23.7739 36.2775 23.8309 36.0873 23.8307H36.0936Z" fill="#C1272D"/>
</svg>
