<svg width="48" height="48" viewBox="0 0 48 48" fill="none" xmlns="http://www.w3.org/2000/svg">
<path d="M30.75 4.5H17.25C16.2558 4.50119 15.3027 4.89666 14.5997 5.59966C13.8967 6.30267 13.5012 7.2558 13.5 8.25V39.75C13.5 41.817 15.1815 43.5 17.25 43.5H30.75C32.8185 43.5 34.5 41.817 34.5 39.75V8.25C34.5 6.183 32.8185 4.5 30.75 4.5ZM17.25 6H30.75C31.9905 6 33 7.0095 33 8.25V10.5H15V8.25C15 7.0095 16.0095 6 17.25 6ZM33 34.5H15V12H33V34.5ZM30.75 42H17.25C16.0095 42 15 40.9905 15 39.75V36H33V39.75C33 40.9905 31.9905 42 30.75 42Z" fill="#C1272D"/>
<path d="M22.5 9H25.5C25.6989 9 25.8897 8.92098 26.0303 8.78033C26.171 8.63968 26.25 8.44891 26.25 8.25C26.25 8.05109 26.171 7.86032 26.0303 7.71967C25.8897 7.57902 25.6989 7.5 25.5 7.5H22.5C22.3011 7.5 22.1103 7.57902 21.9697 7.71967C21.829 7.86032 21.75 8.05109 21.75 8.25C21.75 8.44891 21.829 8.63968 21.9697 8.78033C22.1103 8.92098 22.3011 9 22.5 9Z" fill="#C1272D"/>
<path d="M24 40.5C24.8284 40.5 25.5 39.8284 25.5 39C25.5 38.1716 24.8284 37.5 24 37.5C23.1716 37.5 22.5 38.1716 22.5 39C22.5 39.8284 23.1716 40.5 24 40.5Z" fill="#C1272D"/>
<path d="M10.734 14.7255C10.6489 14.6761 10.5548 14.644 10.4572 14.631C10.3597 14.6181 10.2605 14.6246 10.1654 14.6501C10.0704 14.6756 9.98129 14.7196 9.9033 14.7797C9.82531 14.8397 9.75996 14.9146 9.711 15C8.265 17.505 7.5 20.358 7.5 23.25C7.5 26.142 8.265 28.995 9.711 31.5C9.76025 31.5853 9.82581 31.66 9.90395 31.72C9.98208 31.7799 10.0713 31.8239 10.1664 31.8494C10.2615 31.8749 10.3608 31.8814 10.4584 31.8685C10.556 31.8557 10.6502 31.8237 10.7355 31.7745C10.8208 31.7252 10.8956 31.6597 10.9555 31.5815C11.0155 31.5034 11.0594 31.4142 11.0849 31.3191C11.1104 31.2239 11.1169 31.1247 11.1041 31.0271C11.0912 30.9294 11.0592 30.8353 11.01 30.75C9.6945 28.4715 9 25.878 9 23.25C9 20.622 9.6945 18.0285 11.0085 15.75C11.0581 15.6648 11.0904 15.5706 11.1035 15.4729C11.1166 15.3751 11.1102 15.2758 11.0846 15.1806C11.0591 15.0853 11.015 14.9961 10.9548 14.918C10.8946 14.8399 10.8196 14.7744 10.734 14.7255ZM6.8385 12.4755C6.66624 12.376 6.46153 12.3491 6.2694 12.4006C6.07727 12.452 5.91346 12.5777 5.814 12.75C3.972 15.939 3 19.569 3 23.25C3 26.931 3.972 30.561 5.814 33.75C5.86089 33.8396 5.92542 33.9188 6.00371 33.9829C6.08201 34.0469 6.17245 34.0945 6.2696 34.1226C6.36674 34.1508 6.46859 34.1591 6.569 34.1469C6.66941 34.1347 6.76632 34.1023 6.8539 34.0517C6.94147 34.001 7.0179 33.9332 7.07859 33.8523C7.13927 33.7714 7.18296 33.679 7.20703 33.5808C7.23109 33.4825 7.23504 33.3804 7.21862 33.2806C7.2022 33.1808 7.16577 33.0853 7.1115 33C5.4045 30.039 4.5 26.667 4.5 23.25C4.5 19.833 5.4045 16.461 7.1115 13.5C7.161 13.4148 7.19321 13.3207 7.20629 13.2231C7.21936 13.1255 7.21303 13.0262 7.18767 12.9311C7.1623 12.8359 7.11841 12.7466 7.05849 12.6685C6.99857 12.5903 6.92381 12.5247 6.8385 12.4755ZM37.266 14.7255C37.0937 14.8249 36.9681 14.9888 36.9166 15.1809C36.8651 15.373 36.892 15.5777 36.9915 15.75C38.3055 18.0285 39 20.622 39 23.25C39 25.878 38.3055 28.4715 36.9915 30.75C36.9247 30.8638 36.8893 30.9934 36.8888 31.1254C36.8883 31.2574 36.9229 31.3872 36.9889 31.5015C37.0549 31.6158 37.15 31.7106 37.2645 31.7762C37.3791 31.8418 37.509 31.8759 37.641 31.875C37.9005 31.875 38.1525 31.74 38.2905 31.5C39.735 28.995 40.5 26.142 40.5 23.25C40.5 20.358 39.735 17.505 38.289 15C38.2399 14.9147 38.1745 14.84 38.0965 14.7801C38.0185 14.7201 37.9294 14.6762 37.8344 14.6507C37.7394 14.6252 37.6403 14.6187 37.5428 14.6315C37.4452 14.6443 37.3512 14.6763 37.266 14.7255ZM42.186 12.75C42.1368 12.6648 42.0712 12.5901 41.9931 12.5303C41.915 12.4704 41.8259 12.4265 41.7308 12.4011C41.6358 12.3757 41.5366 12.3692 41.4391 12.3821C41.3415 12.395 41.2474 12.427 41.1623 12.4762C41.0771 12.5255 41.0024 12.591 40.9425 12.6691C40.8827 12.7472 40.8388 12.8363 40.8134 12.9314C40.7879 13.0265 40.7815 13.1256 40.7944 13.2232C40.8073 13.3207 40.8393 13.4148 40.8885 13.5C42.5955 16.461 43.5 19.833 43.5 23.25C43.5 26.667 42.5955 30.039 40.8885 33C40.8217 33.1138 40.7863 33.2434 40.7858 33.3754C40.7853 33.5074 40.8199 33.6372 40.8859 33.7515C40.9519 33.8658 41.047 33.9606 41.1615 34.0262C41.2761 34.0918 41.406 34.1259 41.538 34.125C41.6696 34.125 41.799 34.0903 41.913 34.0245C42.027 33.9587 42.1217 33.864 42.1875 33.75C44.0295 30.561 45.0015 26.931 45.0015 23.25C45.0015 19.569 44.028 15.939 42.186 12.75Z" fill="#C1272D"/>
</svg>
