<svg width="33" height="23" viewBox="0 0 33 23" fill="none" xmlns="http://www.w3.org/2000/svg">
<path d="M32.0359 19.4395C31.9984 19.6957 31.9359 19.9457 31.8422 20.1395C31.6734 20.4832 31.5109 20.5145 30.8734 20.4832C30.0484 20.4457 28.8672 20.4832 27.6172 20.5332C27.6172 20.877 27.6297 21.0395 27.6297 21.0395C27.7109 21.9832 28.1359 22.0145 28.3047 22.0145L30.9922 22.0145C31.2297 22.0145 31.4484 22.0145 31.6172 21.902C31.8359 21.7582 31.9297 21.3395 32.0109 20.6082C32.0234 20.502 32.0297 20.3645 32.0359 20.202L32.0359 20.1957C32.0359 20.1457 32.0422 20.0832 32.0422 20.0145L32.0422 19.9457C32.0422 19.777 32.0422 19.5895 32.0359 19.4395Z" fill="#181818"/>
<path d="M0.420312 19.4395C0.457812 19.6957 0.520312 19.9457 0.614062 20.1395C0.782812 20.4832 0.945312 20.5145 1.58281 20.4832C2.40781 20.4457 3.58906 20.4832 4.83906 20.5332C4.83906 20.877 4.82656 21.0395 4.82656 21.0395C4.74531 21.9832 4.32031 22.0145 4.15156 22.0145L1.46406 22.0145C1.22656 22.0145 1.02656 22.0145 0.839062 21.902C0.614062 21.7707 0.526562 21.3395 0.445313 20.6082C0.432813 20.502 0.426562 20.3645 0.420312 20.202L0.420312 20.1957C0.420312 20.1457 0.414063 20.0832 0.414063 20.0145L0.414063 19.9457C0.420313 19.777 0.420312 19.5895 0.420312 19.4395Z" fill="#181818"/>
<path d="M32.2344 13.5465C32.2344 11.6277 31.9844 9.75274 31.8844 9.54649C31.8094 9.39649 31.3281 9.00273 30.2344 8.25898C29.1281 7.50273 29.1531 7.61524 28.9531 7.12149C29.1344 7.06524 29.3094 6.95898 29.4156 6.94648C29.6531 6.92148 29.6656 7.14648 30.1594 7.14648C30.6531 7.14648 31.7219 7.01524 31.9406 6.79649C32.1594 6.57774 32.2281 6.50273 32.2281 6.30898C32.2281 6.11523 32.1156 5.71523 31.9031 5.47773C31.6906 5.24023 30.7844 5.12148 30.2531 5.05273C29.7219 4.98398 29.6469 5.05274 29.5094 5.14024C29.2906 5.27774 29.2781 6.53398 29.2781 6.53398L28.7594 6.54649C28.4219 5.71524 27.9531 4.04023 27.2219 2.72148C26.4219 1.28398 25.5844 0.833985 25.2344 0.721485C24.8906 0.615235 24.5781 0.540234 22.2344 0.302734C19.8406 0.0527343 17.9344 0.0214843 16.2344 0.0214843C14.5344 0.0214843 12.6281 0.0589843 10.2344 0.302734C7.89062 0.546484 7.57812 0.615235 7.23437 0.721485C6.89062 0.827735 6.04687 1.28398 5.24687 2.72148C4.51562 4.04023 4.04687 5.71524 3.70937 6.54649L3.19062 6.53398C3.19062 6.53398 3.18437 5.27774 2.95937 5.14024C2.82187 5.05274 2.74687 4.97773 2.21562 5.05273C1.68437 5.12773 0.778125 5.24023 0.565625 5.47773C0.353125 5.71523 0.240625 6.11524 0.240625 6.30899C0.240625 6.50274 0.309375 6.58399 0.528125 6.79649C0.746875 7.01524 1.81562 7.14648 2.30937 7.14648C2.80312 7.14648 2.81562 6.92148 3.05312 6.94648C3.15937 6.95898 3.34062 7.06524 3.51562 7.12149C3.30937 7.61524 3.34062 7.50273 2.23437 8.25899C1.14062 9.00899 0.653125 9.39649 0.584375 9.54649C0.484375 9.75274 0.234375 11.6277 0.234375 13.5465C0.234375 15.4652 0.371875 17.1902 0.371875 17.8027C0.371875 18.059 0.371875 18.509 0.428125 18.9402C0.465625 19.1965 0.521875 19.4465 0.621875 19.6402C0.790625 19.984 0.946875 20.0152 1.59062 19.984C2.41562 19.9465 3.60937 19.984 4.84062 20.034C5.66562 20.0652 6.50937 20.0965 7.25937 20.1152C9.13437 20.1527 8.58437 19.8402 9.38437 19.8527C10.1844 19.8652 13.3406 19.9965 16.2281 19.9965C19.1156 19.9965 22.2781 19.8652 23.0719 19.8527C23.8719 19.8402 23.3219 20.1527 25.1969 20.1152C25.9469 20.1027 26.7906 20.0652 27.6156 20.034C28.8469 19.9902 30.0469 19.9465 30.8656 19.984C31.5094 20.0152 31.6656 19.984 31.8344 19.6402C31.9281 19.4465 31.9906 19.1965 32.0281 18.9402C32.0906 18.509 32.0844 18.059 32.0844 17.8027C32.0969 17.1965 32.2344 15.4652 32.2344 13.5465ZM5.62187 4.08398C5.92187 3.38398 6.82187 1.97773 7.25937 1.72773C7.36562 1.66523 8.29687 1.37148 10.6281 1.21523C12.7719 1.07148 15.1406 1.01523 16.2406 1.01523C17.3406 1.01523 19.7094 1.07148 21.8531 1.21523C24.1781 1.37148 25.1219 1.65898 25.2219 1.72773C25.7844 2.11523 26.5594 3.38398 26.8594 4.08398C27.1594 4.78398 27.5594 6.15898 27.4844 6.34648C27.4094 6.53398 27.5594 6.62774 26.5469 6.54649C25.5406 6.47149 19.2219 6.39024 16.2469 6.39024C13.2781 6.39024 6.95937 6.47149 5.94687 6.54649C4.93437 6.62149 5.08437 6.53398 5.00937 6.34648C4.92187 6.15898 5.32187 4.79023 5.62187 4.08398ZM7.92187 11.909C7.47187 12.0215 7.20312 12.2652 6.64062 12.259C6.07812 12.259 4.55937 12.0027 4.23437 11.9902C3.90937 11.9777 3.62187 12.209 3.45312 12.2527C3.28437 12.2965 2.95312 12.1777 2.45312 12.0215C1.95312 11.8652 1.65937 11.909 1.49687 11.2277C1.32812 10.5527 1.49687 9.58398 1.49687 9.58398C2.57812 9.53398 3.62187 9.63399 5.57812 10.184C7.53437 10.734 8.62187 11.7902 8.62187 11.7902C8.62187 11.7902 8.37187 11.7965 7.92187 11.909ZM22.6219 16.834C21.7281 16.9527 17.9844 16.984 16.2344 16.984C14.4844 16.984 10.7406 16.9465 9.84687 16.834C8.93437 16.7152 7.74687 15.6215 8.56562 14.7527C9.67187 13.5715 9.46562 13.609 11.9781 13.284C14.1531 13.0027 15.8031 12.9902 16.2344 12.9902C16.6594 12.9902 18.3156 13.009 20.4906 13.284C23.0031 13.609 22.7969 13.5715 23.9031 14.7527C24.7219 15.6215 23.5344 16.7152 22.6219 16.834ZM30.9719 11.234C30.8031 11.909 30.5156 11.8715 30.0156 12.0277C29.5156 12.184 29.1844 12.2965 29.0156 12.259C28.8469 12.2215 28.5594 11.9902 28.2344 11.9965C27.9094 12.009 26.3906 12.2652 25.8281 12.2652C25.2656 12.2652 24.9969 12.0277 24.5469 11.9152C24.0969 11.8027 23.8469 11.8027 23.8469 11.8027C23.8469 11.8027 24.9281 10.7402 26.8906 10.1965C28.8469 9.64648 29.8906 9.54648 30.9719 9.59648C30.9719 9.58398 31.1406 10.5527 30.9719 11.234Z" fill="#181818"/>
</svg>
