<svg width="48" height="48" viewBox="0 0 48 48" fill="none" xmlns="http://www.w3.org/2000/svg">
<path fill-rule="evenodd" clip-rule="evenodd" d="M33.3415 28.9298C32.7606 28.7324 32.224 28.4232 31.7619 28.0197C31.7619 28.0097 31.7619 28.0097 31.7519 28.0097C31.6919 27.9597 31.6419 27.8997 31.5819 27.8497C31.5729 27.8459 31.5658 27.8387 31.5619 27.8297C30.7421 27.0088 30.2483 25.9181 30.1723 24.7605C32.0756 22.2421 33.0791 19.1581 33.0225 16.0019C33.024 14.7206 32.8663 13.444 32.553 12.2016V12.1946C33.0508 11.3667 33.248 10.3924 33.1114 9.43608C32.9748 8.4797 32.5127 7.59966 31.8029 6.94425C29.8496 5.17829 27.3451 4.14325 24.7149 4.01505C24.4052 3.99498 24.0946 3.99498 23.7849 4.01505C17.5569 4.25507 12.6781 9.52393 12.6781 16.0029C12.6788 16.1472 12.7104 16.2897 12.7708 16.4208C12.8312 16.5519 12.9189 16.6686 13.0281 16.7629C13.5999 17.2439 14.3115 17.5277 15.0573 17.5725C15.2643 20.3336 16.3266 22.9616 18.0965 25.091C18.1926 25.1973 18.3099 25.2824 18.4407 25.341C18.5716 25.3995 18.7132 25.4302 18.8565 25.431C19.0968 25.4315 19.3286 25.3424 19.5066 25.181C19.7066 25.0072 19.8294 24.7612 19.8482 24.4969C19.8669 24.2326 19.78 23.9717 19.6066 23.7714C18.1118 21.9401 17.2209 19.6907 17.0564 17.3325C19.3356 16.7029 22.3248 14.8323 26.404 11.5036L29.5633 14.4133C29.6689 14.5071 29.7924 14.5785 29.9264 14.6232C30.0604 14.6678 30.2021 14.6849 30.3428 14.6733C30.5615 14.6528 30.7664 14.5574 30.9229 14.4033C30.9914 14.9338 31.0248 15.4684 31.0229 16.0034C31.0229 19.0326 30.0628 21.8538 28.4032 23.7619V23.7719L28.3832 23.7919C27.8561 24.4545 27.1918 24.9951 26.4359 25.3766C25.68 25.758 24.8505 25.9712 24.0044 26.0016C23.7391 26.0016 23.4848 26.1069 23.2972 26.2945C23.1097 26.482 23.0043 26.7364 23.0043 27.0016C23.0043 27.2669 23.1097 27.5212 23.2972 27.7088C23.4848 27.8963 23.7391 28.0017 24.0044 28.0017C25.6217 27.9862 27.1888 27.438 28.4632 26.4421C28.7043 27.2415 29.0945 27.988 29.6133 28.6422L24.2944 33.9611C24.1061 34.148 23.9997 34.4021 23.9987 34.6675C23.9978 34.9328 24.1022 35.1876 24.2892 35.376C24.4761 35.5643 24.7302 35.6706 24.9955 35.6716C25.2608 35.6726 25.5157 35.5681 25.704 35.3812L31.0729 30.0118C31.5798 30.358 32.1314 30.6339 32.7125 30.8319C40.65 33.4821 41.5101 35.1712 41.5101 35.7707C41.5101 37.8209 35.7817 40.4901 28.9932 41.5996C26.8026 41.953 24.5808 42.0737 22.3648 41.9597C22.1006 41.9505 21.8432 42.0446 21.6472 42.2219C21.4512 42.3993 21.332 42.646 21.3147 42.9097C21.3022 43.1748 21.3951 43.434 21.5731 43.6308C21.7511 43.8275 21.9998 43.9458 22.2648 43.9598C22.8348 43.9898 23.4249 43.9998 24.0149 43.9998C25.7931 44.0059 27.5687 43.8654 29.3237 43.5798C34.5921 42.7102 43.5097 40.0905 43.5097 35.7712C43.5087 33.3891 40.37 31.2789 33.3415 28.9298ZM30.7414 11.2926L30.0913 12.1826L27.1221 9.43243C26.943 9.26872 26.7105 9.17548 26.4679 9.16996C26.2253 9.16444 25.9889 9.24703 25.8025 9.40243C20.8637 13.5027 17.3649 15.5814 15.3853 15.5814C15.1496 15.5875 14.915 15.5468 14.6952 15.4613C14.9453 10.311 18.8845 6.2032 23.9029 6.01068C24.0129 6.00068 24.1129 6.00069 24.2229 6.00069C24.3329 6.00069 24.4529 6.00068 24.6029 6.01068C26.7807 6.0979 28.8568 6.95538 30.4613 8.43036C30.8498 8.79114 31.0928 9.28159 31.1446 9.80921C31.1963 10.3368 31.0533 10.8652 30.7423 11.2946L30.7414 11.2926ZM31.7509 28.0097C31.6909 27.9597 31.6409 27.8997 31.5809 27.8497C31.6267 27.8834 31.6701 27.9202 31.7109 27.9597C31.7219 27.9797 31.7419 27.9897 31.7519 28.0097H31.7509ZM13.0036 43.6668C11.2232 43.6674 9.48266 43.1399 8.00207 42.1512C6.52148 41.1624 5.36738 39.7568 4.68576 38.112C4.00413 36.4673 3.82561 34.6574 4.17277 32.9111C4.51992 31.1649 5.37716 29.5609 6.63605 28.3019C7.89494 27.043 9.49893 26.1857 11.2451 25.8384C12.9913 25.4912 14.8013 25.6696 16.4461 26.3511C18.0908 27.0326 19.4966 28.1867 20.4854 29.6672C21.4742 31.1477 22.0017 32.8883 22.0012 34.6687C21.9986 37.0542 21.0498 39.3413 19.363 41.0282C17.6762 42.7151 15.3892 43.664 13.0036 43.6668ZM13.0036 27.6697C11.619 27.6692 10.2652 28.0793 9.11369 28.8483C7.96214 29.6172 7.06447 30.7103 6.53424 31.9895C6.00401 33.2686 5.86502 34.6762 6.13485 36.0344C6.40469 37.3925 7.07122 38.6401 8.05015 39.6194C9.02909 40.5987 10.2764 41.2656 11.6345 41.5359C12.9925 41.8063 14.4002 41.6678 15.6795 41.138C16.9588 40.6082 18.0523 39.711 18.8216 38.5597C19.591 37.4084 20.0016 36.0548 20.0016 34.6702C19.9999 32.8145 19.2621 31.0353 17.9502 29.7229C16.6383 28.4105 14.8593 27.6721 13.0036 27.6697ZM11.8735 38.5664C11.6083 38.5664 11.354 38.461 11.1665 38.2734L8.2978 35.4047C8.12006 35.2153 8.02299 34.9642 8.02712 34.7045C8.03125 34.4448 8.13625 34.1969 8.31991 34.0132C8.50357 33.8296 8.75148 33.7246 9.01118 33.7204C9.27088 33.7163 9.522 33.8134 9.7114 33.9911L11.8735 36.1528L16.2959 31.73C16.4856 31.5525 16.7369 31.4559 16.9966 31.4605C17.2563 31.4651 17.504 31.5705 17.6873 31.7545C17.8707 31.9385 17.9752 32.1866 17.9789 32.4463C17.9826 32.706 17.885 32.957 17.7069 33.1461L12.5776 38.2754C12.3907 38.4618 12.1375 38.5664 11.8735 38.5664Z" fill="#C1272D"/>
</svg>
