<svg width="48" height="48" viewBox="0 0 48 48" fill="none" xmlns="http://www.w3.org/2000/svg">
<g clip-path="url(#clip0_1630_9094)">
<path d="M32.5349 48H2.87992C2.12864 47.998 1.4087 47.6987 0.877461 47.1675C0.346224 46.6362 0.0469015 45.9163 0.0449219 45.165V2.835C0.0449219 1.275 1.31242 0 2.87992 0H32.5349C34.0949 0 35.3699 1.275 35.3699 2.835V5.37C35.3699 5.775 35.0474 6.0975 34.6424 6.0975C34.2374 6.0975 33.9149 5.775 33.9149 5.37V2.835C33.9149 2.0775 33.2924 1.455 32.5349 1.455H2.87992C2.11492 1.455 1.49992 2.0775 1.49992 2.835V45.165C1.49992 45.9225 2.12242 46.545 2.87992 46.545H32.5349C33.2924 46.545 33.9149 45.9225 33.9149 45.165V23.7825C33.9149 23.3775 34.2374 23.055 34.6424 23.055C35.0474 23.055 35.3699 23.3775 35.3699 23.7825V45.165C35.3699 46.725 34.0949 48 32.5349 48Z" fill="#C1272D"/>
<path d="M31.1327 41.3248H4.28268C3.87768 41.3248 3.55518 41.0023 3.55518 40.5973V4.23727C3.55518 3.83227 3.87768 3.50977 4.28268 3.50977H31.1252C31.5302 3.50977 31.8527 3.83227 31.8527 4.23727V5.84977C31.8527 6.25477 31.5302 6.57727 31.1252 6.57727C30.7202 6.57727 30.3977 6.25477 30.3977 5.84977V4.96477H5.01018V39.8698H30.3977V23.3023C30.3977 22.8973 30.7202 22.5748 31.1252 22.5748C31.5302 22.5748 31.8527 22.8973 31.8527 23.3023V40.5973C31.8527 41.0023 31.5302 41.3248 31.1327 41.3248ZM17.7077 46.0273C17.1547 46.0273 16.6244 45.8076 16.2334 45.4166C15.8423 45.0256 15.6227 44.4952 15.6227 43.9423C15.6227 43.3893 15.8423 42.859 16.2334 42.4679C16.6244 42.0769 17.1547 41.8573 17.7077 41.8573C18.8552 41.8573 19.7927 42.7948 19.7927 43.9423C19.7927 44.4952 19.573 45.0256 19.182 45.4166C18.791 45.8076 18.2607 46.0273 17.7077 46.0273ZM17.7077 43.3048C17.5386 43.3048 17.3764 43.3719 17.2569 43.4915C17.1373 43.611 17.0702 43.7732 17.0702 43.9423C17.0702 44.1113 17.1373 44.2735 17.2569 44.393C17.3764 44.5126 17.5386 44.5798 17.7077 44.5798C18.0602 44.5798 18.3377 44.2948 18.3377 43.9423C18.3392 43.8588 18.324 43.7758 18.2929 43.6983C18.2619 43.6208 18.2157 43.5502 18.157 43.4908C18.0983 43.4314 18.0283 43.3843 17.9511 43.3524C17.874 43.3204 17.7912 43.3043 17.7077 43.3048Z" fill="#C1272D"/>
<path d="M25.5 25.7848C25.3121 25.7849 25.1315 25.7124 24.9959 25.5824C24.8603 25.4524 24.7802 25.275 24.7725 25.0873L24.5775 20.4373C22.95 18.7273 22.0875 16.7023 22.0875 14.5798C22.0875 9.09727 27.885 4.63477 35.0175 4.63477C42.15 4.63477 47.9475 9.09727 47.9475 14.5798C47.9475 20.0623 42.15 24.5248 35.0175 24.5248C33.12 24.5248 31.2825 24.2098 29.5575 23.5948L25.8525 25.6948C25.7475 25.7473 25.6275 25.7848 25.5 25.7848ZM35.025 6.08977C28.695 6.08977 23.55 9.89977 23.55 14.5798C23.55 16.3948 24.33 18.1348 25.815 19.6123C25.9425 19.7398 26.0175 19.9123 26.025 20.0998L26.1825 23.8348L29.145 22.1548C29.3325 22.0498 29.565 22.0273 29.7675 22.1098C31.4175 22.7473 33.1875 23.0698 35.0325 23.0698C41.3625 23.0698 46.5075 19.2598 46.5075 14.5798C46.5075 9.89977 41.355 6.08977 35.025 6.08977ZM26.3325 41.3248C25.9275 41.3248 25.605 41.0023 25.605 40.5973V37.2973C25.6073 35.8059 25.0603 34.366 24.0684 33.2523C23.0764 32.1387 21.7091 31.4294 20.2275 31.2598L18.3075 34.0123C18.0375 34.4023 17.385 34.4023 17.115 34.0123L15.1875 31.2598C12.1575 31.5973 9.80998 34.1848 9.80998 37.2973V40.5973C9.80998 41.0023 9.48748 41.3248 9.08248 41.3248C8.67748 41.3248 8.35498 41.0023 8.35498 40.5973V37.2973C8.35498 33.2773 11.4975 29.9773 15.5025 29.7748C15.7575 29.7598 15.9975 29.8798 16.14 30.0823L17.7075 32.3248L19.275 30.0823C19.41 29.8873 19.635 29.7748 19.8675 29.7748C23.9175 29.9773 27.06 33.2848 27.06 37.2973V40.5973C27.06 41.0023 26.7375 41.3248 26.3325 41.3248Z" fill="#C1272D"/>
<path d="M23.2575 41.3248H23.22C23.1249 41.3197 23.0317 41.2958 22.9459 41.2545C22.86 41.2132 22.7832 41.1553 22.7198 41.0842C22.6563 41.0131 22.6076 40.9302 22.5763 40.8402C22.545 40.7502 22.5319 40.6549 22.5375 40.5598L22.725 37.1698C22.7475 36.7723 23.0925 36.4648 23.49 36.4798C23.8875 36.5023 24.195 36.8473 24.1725 37.2448L23.985 40.6348C23.9625 41.0248 23.6475 41.3248 23.2575 41.3248ZM12.1575 41.3248C11.775 41.3248 11.4525 41.0248 11.43 40.6348L11.2425 37.2448C11.2323 37.0531 11.2983 36.865 11.4261 36.7217C11.554 36.5784 11.7333 36.4914 11.925 36.4798C12.3225 36.4573 12.6675 36.7648 12.69 37.1698L12.8775 40.5598C12.8878 40.7516 12.8218 40.9397 12.6939 41.083C12.5661 41.2263 12.3867 41.3132 12.195 41.3248H12.1575ZM17.7075 29.9773C15.0075 29.9773 12.8175 27.7798 12.8175 25.0873C12.8175 22.3873 15.015 20.1973 17.7075 20.1973C20.4 20.1973 22.5975 22.3948 22.5975 25.0873C22.5975 27.7873 20.4075 29.9773 17.7075 29.9773ZM17.7075 21.6523C17.2564 21.6523 16.8097 21.7411 16.3928 21.9137C15.976 22.0863 15.5973 22.3393 15.2783 22.6583C14.9592 22.9772 14.7061 23.3559 14.5334 23.7727C14.3607 24.1895 14.2718 24.6362 14.2718 25.0873C14.2717 25.5385 14.3605 25.9852 14.5331 26.402C14.7057 26.8189 14.9588 27.1976 15.2777 27.5166C15.5967 27.8357 15.9754 28.0888 16.3922 28.2614C16.8089 28.4341 17.2556 28.523 17.7068 28.5231C18.6179 28.5232 19.4917 28.1613 20.1361 27.5172C20.7804 26.873 21.1424 25.9992 21.1425 25.0881C21.1426 24.177 20.7808 23.3031 20.1366 22.6588C19.4924 22.0145 18.6187 21.6524 17.7075 21.6523ZM15.18 8.48234H7.45504C7.05004 8.48234 6.72754 8.15984 6.72754 7.75484C6.72754 7.34984 7.05004 7.02734 7.45504 7.02734H15.18C15.373 7.02734 15.558 7.10399 15.6945 7.24042C15.8309 7.37686 15.9075 7.5619 15.9075 7.75484C15.9075 7.94779 15.8309 8.13283 15.6945 8.26926C15.558 8.4057 15.373 8.48234 15.18 8.48234ZM15.18 11.6248H7.45504C7.05004 11.6248 6.72754 11.3023 6.72754 10.8973C6.72754 10.4923 7.05004 10.1698 7.45504 10.1698H15.18C15.585 10.1698 15.9075 10.4923 15.9075 10.8973C15.9075 11.3023 15.585 11.6248 15.18 11.6248ZM15.18 14.7748H7.45504C7.05004 14.7748 6.72754 14.4523 6.72754 14.0473C6.72754 13.6423 7.05004 13.3198 7.45504 13.3198H15.18C15.585 13.3198 15.9075 13.6423 15.9075 14.0473C15.9075 14.4523 15.585 14.7748 15.18 14.7748ZM15.18 17.9248H7.45504C7.05004 17.9248 6.72754 17.6023 6.72754 17.1973C6.72754 16.7923 7.05004 16.4698 7.45504 16.4698H15.18C15.373 16.4698 15.558 16.5465 15.6945 16.6829C15.8309 16.8194 15.9075 17.0044 15.9075 17.1973C15.9075 17.3903 15.8309 17.5753 15.6945 17.7118C15.558 17.8482 15.373 17.9248 15.18 17.9248ZM35.025 14.1523C33.405 14.1523 32.085 12.8323 32.085 11.2123C32.085 9.59234 33.405 8.27234 35.025 8.27234C36.645 8.27234 37.965 9.59234 37.965 11.2123C37.965 12.8323 36.645 14.1523 35.025 14.1523ZM35.025 9.71984C34.2075 9.71984 33.54 10.3873 33.54 11.2048C33.54 12.0223 34.2075 12.6898 35.025 12.6898C35.8425 12.6898 36.51 12.0223 36.51 11.2048C36.5175 10.3873 35.8425 9.71984 35.025 9.71984ZM39.735 20.5798H30.315C29.91 20.5798 29.5875 20.2573 29.5875 19.8523C29.5875 16.8523 32.025 14.4148 35.025 14.4148C38.025 14.4148 40.4625 16.8523 40.4625 19.8523C40.4625 20.2573 40.14 20.5798 39.735 20.5798ZM31.11 19.1248H38.94C38.595 17.2723 36.975 15.8698 35.025 15.8698C33.075 15.8698 31.455 17.2798 31.11 19.1248Z" fill="#C1272D"/>
</g>
<defs>
<clipPath id="clip0_1630_9094">
<rect width="48" height="48" fill="white"/>
</clipPath>
</defs>
</svg>
