<svg width="33" height="18" viewBox="0 0 33 18" fill="none" xmlns="http://www.w3.org/2000/svg">
<path d="M16.6222 10.1934C18.4922 10.1934 20.3322 7.15344 20.3322 4.05844C20.3322 0.828437 18.3122 0.148437 16.6222 0.148437C14.9222 0.148437 12.9122 0.828437 12.9122 4.05844C12.9122 7.15344 14.7472 10.1934 16.6222 10.1934ZM22.8422 12.4984C22.0622 12.2584 21.1472 11.8684 20.1372 11.3384C19.6572 11.0784 19.1472 10.7934 18.6322 10.4834C18.0322 10.9484 17.3522 11.2234 16.6222 11.2234C15.8922 11.2234 15.2122 10.9484 14.6072 10.4834C14.2072 10.7284 13.6872 11.0334 13.0972 11.3384C12.8222 11.4834 12.5572 11.6134 12.3072 11.7334C11.6022 12.0684 10.9672 12.3234 10.3972 12.4984C8.32719 13.1434 7.80219 15.9134 7.67719 17.0834L25.5622 17.0834C25.4322 15.9184 24.9172 13.1484 22.8422 12.4984ZM26.0722 9.72844C26.4522 9.72844 26.8222 9.55344 27.1622 9.25344C27.1772 9.24344 27.1872 9.22844 27.2022 9.21844C28.0572 8.43344 28.7122 6.86344 28.7122 5.26844C28.7122 2.95844 27.2722 2.47344 26.0672 2.47344C24.8572 2.47344 23.4172 2.95844 23.4172 5.26844C23.4172 6.86844 24.0822 8.44844 24.9422 9.22844C25.3022 9.53844 25.6872 9.72844 26.0722 9.72844ZM30.6972 11.7084C30.1172 11.5334 29.4522 11.2484 28.6472 10.8334C28.2372 10.6184 27.8722 10.4034 27.5872 10.2334C27.1322 10.5634 26.6172 10.7634 26.0772 10.7634C25.5272 10.7634 25.0172 10.5684 24.5622 10.2334C24.2072 10.4484 23.8522 10.6534 23.5022 10.8334C23.1622 11.0134 22.8372 11.1684 22.5372 11.2984C22.7522 11.3834 22.9572 11.4484 23.1522 11.5084C24.8322 12.0334 25.7022 13.5134 26.1522 14.8834L32.6172 14.8834C32.5022 13.9684 32.0922 12.1484 30.6972 11.7084ZM6.07219 9.24844C6.41219 9.54844 6.78719 9.72344 7.16219 9.72344C7.54719 9.72344 7.92719 9.54344 8.27719 9.23344C8.28719 9.22344 8.29219 9.21844 8.29719 9.21344C9.15719 8.42844 9.81219 6.85844 9.81219 5.26344C9.81219 2.95344 8.37219 2.46844 7.16219 2.46844C5.95719 2.46844 4.51719 2.95344 4.51719 5.26344C4.51719 6.85344 5.16719 8.42344 6.02219 9.20844C6.04219 9.22344 6.05719 9.23344 6.07219 9.24844ZM10.0922 11.5134C10.2872 11.4584 10.4972 11.3834 10.7072 11.3034C10.4072 11.1684 10.0872 11.0134 9.73719 10.8384C9.32719 10.6284 8.96719 10.4134 8.67719 10.2384C8.22219 10.5684 7.71219 10.7684 7.16719 10.7684C6.62219 10.7684 6.11219 10.5734 5.65719 10.2384C5.38719 10.4034 5.02219 10.6184 4.59219 10.8384C3.80219 11.2534 3.12719 11.5384 2.55219 11.7134C1.14719 12.1484 0.737188 13.9684 0.617188 14.8884L7.08719 14.8884C7.53719 13.5134 8.40719 12.0334 10.0922 11.5134Z" fill="#181818"/>
</svg>
