<svg width="56" height="56" viewBox="0 0 56 56" fill="none" xmlns="http://www.w3.org/2000/svg">
<path fill-rule="evenodd" clip-rule="evenodd" d="M19.8346 27.9993C24.3467 27.9993 28.0013 24.3448 28.0013 19.8327C28.0013 15.3206 24.3467 11.666 19.8346 11.666C15.3226 11.666 11.668 15.3206 11.668 19.8327C11.668 24.3448 15.3226 27.9993 19.8346 27.9993ZM25.668 19.8327C25.668 23.0561 23.058 25.666 19.8346 25.666C16.6113 25.666 14.0013 23.0561 14.0013 19.8327C14.0013 16.6093 16.6113 13.9993 19.8346 13.9993C23.058 13.9993 25.668 16.6093 25.668 19.8327ZM4.66797 44.3327V37.7994C4.66797 32.834 14.7727 30.3327 19.8346 30.3327C23.2019 30.3327 28.8006 31.4395 32.172 33.6423C34.575 32.9924 37.2105 32.666 39.0846 32.666C41.2522 32.666 44.1608 33.1026 46.562 33.9852C47.7604 34.4258 48.9067 35.004 49.7739 35.7534C50.6472 36.508 51.3346 37.5282 51.3346 38.8105V44.3327H4.66797ZM7.0013 37.7994C7.0013 37.4291 7.17112 36.9227 7.89518 36.2647C8.63356 35.5938 9.77006 34.9423 11.2093 34.3746C14.09 33.2384 17.5907 32.666 19.8346 32.666C22.0786 32.666 25.5793 33.2384 28.46 34.3746C29.8992 34.9423 31.0357 35.5938 31.7741 36.2647C32.4981 36.9227 32.668 37.4291 32.668 37.7994V41.9993H7.0013V37.7994ZM34.2467 35.5467C36.0113 35.1819 37.7819 34.9993 39.0846 34.9993C41.0056 34.9993 43.6386 35.3966 45.7569 36.1752C46.8182 36.5654 47.6763 37.0247 48.2483 37.519C48.8144 38.0081 49.0013 38.4375 49.0013 38.8105V41.9993H35.0013V37.7994C35.0013 36.9816 34.7273 36.2306 34.2467 35.5467ZM45.5013 23.916C45.5013 27.4612 42.6298 30.3327 39.0846 30.3327C35.5395 30.3327 32.668 27.4612 32.668 23.916C32.668 20.3707 35.5395 17.4993 39.0846 17.4993C42.6298 17.4993 45.5013 20.3707 45.5013 23.916ZM39.0846 27.9993C41.3412 27.9993 43.168 26.1726 43.168 23.916C43.168 21.6594 41.3412 19.8327 39.0846 19.8327C36.8281 19.8327 35.0013 21.6594 35.0013 23.916C35.0013 26.1726 36.8281 27.9993 39.0846 27.9993Z" fill="#C1272D"/>
</svg>
