<svg width="40" height="40" viewBox="0 0 40 40" fill="none" xmlns="http://www.w3.org/2000/svg">
<path d="M29.0865 21.2382C28.8208 21.2382 28.543 21.1537 28.2773 21.0933C27.7392 20.9747 27.2104 20.8173 26.695 20.6222C26.1347 20.4184 25.5188 20.429 24.9658 20.6519C24.4128 20.8749 23.9618 21.2945 23.6996 21.8301L23.4339 22.3736C22.2574 21.7191 21.1764 20.9063 20.221 19.9579C19.2726 19.0025 18.4598 17.9215 17.8054 16.7451L18.3127 16.4069C18.8482 16.1447 19.2678 15.6937 19.4908 15.1407C19.7138 14.5877 19.7243 13.9718 19.5205 13.4115C19.3287 12.895 19.1714 12.3665 19.0494 11.8292C18.9891 11.5635 18.9407 11.2857 18.9045 11.0079C18.7578 10.1571 18.3122 9.38666 17.6479 8.83528C16.9836 8.28391 16.1442 7.98783 15.281 8.00038H11.6575C11.137 7.9955 10.6215 8.10282 10.1462 8.31506C9.67084 8.5273 9.24682 8.83946 8.90297 9.2303C8.55913 9.62113 8.30353 10.0815 8.15358 10.58C8.00363 11.0785 7.96286 11.6034 8.03402 12.1191C8.67748 17.1792 10.9884 21.8806 14.6018 25.4809C18.2152 29.0811 22.925 31.375 27.9874 32H28.4464C29.337 32.0013 30.197 31.6745 30.862 31.082C31.2442 30.7403 31.5494 30.3213 31.7576 29.8529C31.9658 29.3844 32.0722 28.8771 32.0699 28.3644V24.7409C32.0551 23.902 31.7496 23.0941 31.2055 22.4553C30.6614 21.8165 29.9125 21.3863 29.0865 21.2382ZM29.6904 28.4852C29.6902 28.6567 29.6535 28.8262 29.5827 28.9824C29.5119 29.1386 29.4086 29.2779 29.2798 29.3911C29.1448 29.5076 28.987 29.5947 28.8165 29.6466C28.6459 29.6986 28.4664 29.7144 28.2894 29.693C23.7659 29.113 19.5643 27.0436 16.3472 23.8112C13.1301 20.5789 11.0807 16.3674 10.5222 11.8413C10.5029 11.6644 10.5198 11.4854 10.5717 11.3151C10.6236 11.1449 10.7095 10.987 10.8241 10.8509C10.9373 10.722 11.0766 10.6188 11.2328 10.548C11.389 10.4772 11.5585 10.4404 11.73 10.4402H15.3535C15.6344 10.434 15.9086 10.5258 16.1291 10.7C16.3495 10.8741 16.5024 11.1197 16.5613 11.3944C16.6096 11.7245 16.67 12.0506 16.7425 12.3727C16.882 13.0094 17.0677 13.6351 17.2981 14.2449L15.6071 15.03C15.4625 15.0963 15.3325 15.1905 15.2244 15.3073C15.1164 15.424 15.0324 15.5609 14.9774 15.7102C14.9225 15.8595 14.8975 16.0181 14.904 16.1771C14.9105 16.336 14.9483 16.4921 15.0153 16.6364C16.7536 20.3598 19.7467 23.3529 23.4701 25.0912C23.7642 25.212 24.094 25.212 24.3881 25.0912C24.5387 25.0373 24.6771 24.9541 24.7953 24.8462C24.9135 24.7384 25.0091 24.6082 25.0765 24.4631L25.8254 22.7722C26.4498 22.9955 27.0871 23.181 27.7338 23.3278C28.0558 23.4002 28.382 23.4606 28.7121 23.5089C28.9868 23.5679 29.2324 23.7207 29.4065 23.9412C29.5807 24.1616 29.6725 24.4359 29.6663 24.7168L29.6904 28.4852Z" fill="#C1272D"/>
</svg>
