<svg width="22" height="31" viewBox="0 0 22 31" fill="none" xmlns="http://www.w3.org/2000/svg">
<path d="M20.9023 24.9536L18.3551 20.7344C18.2756 20.6024 18.129 20.3579 17.8356 20.243C17.4445 20.0939 17.0851 20.2919 16.9311 20.3762L14.3778 21.7708C13.9598 21.997 13.4954 22.2072 13.2094 22.0532C13.0468 21.9664 12.9221 21.755 12.7755 21.4873L9.95572 16.3379L7.301 11.1243C7.16779 10.8627 7.05901 10.6317 7.07853 10.4472C7.11216 10.1227 7.54789 9.85869 7.96895 9.64355L10.5608 8.318C10.7179 8.23795 11.0845 8.04972 11.1811 7.64635C11.2526 7.34692 11.1334 7.08469 11.0693 6.94295L9.01773 2.45907C8.78611 1.95365 8.46892 1.26188 7.80951 0.903721C7.02053 0.475325 6.08429 0.722218 5.52572 0.871965C4.30714 1.19649 3.22788 1.52834 2.36188 2.30387C0.88834 3.62572 0.586421 5.75794 0.418977 7.65308C0.261291 9.43575 0.493518 11.5466 1.10893 13.927C1.62841 15.9394 2.42284 17.9072 3.47216 19.7798C4.42677 21.6975 5.60256 23.4612 6.9709 25.0245C8.61485 26.9007 10.183 28.2427 11.7652 29.1289C13.1213 29.8891 14.6589 30.6641 16.2247 30.6641C16.5755 30.6641 16.9275 30.6262 17.2795 30.5394C18.4089 30.2608 19.2902 29.5567 20.2447 28.7329C20.6823 28.354 21.4157 27.7209 21.5061 26.8286C21.5807 26.0793 21.1883 25.4291 20.9023 24.9536ZM19.5896 27.975C18.7353 28.7133 17.9542 29.3415 17.04 29.5664C15.4706 29.9539 13.746 29.091 12.2542 28.2562C10.7935 27.4373 9.26941 26.1282 7.72388 24.3645C6.48141 22.9454 5.40343 21.3516 4.51421 19.6209C4.50275 19.5782 4.48591 19.5371 4.4641 19.4986C4.42819 19.4366 4.39273 19.3742 4.35774 19.3116C4.32444 19.245 4.29163 19.1782 4.25932 19.1112C4.23973 19.071 4.21487 19.0336 4.18539 18.9999C3.25769 17.29 2.54938 15.5018 2.0782 13.6764C1.49151 11.4066 1.26844 9.41005 1.41636 7.74107C1.56672 6.03664 1.82828 4.12744 3.03038 3.04939C3.73075 2.42174 4.69141 2.13024 5.78292 1.83996C6.34458 1.69021 6.92757 1.56495 7.33154 1.78372C7.67012 1.96765 7.88338 2.38689 8.10706 2.87583L10.1678 7.39334C10.1507 7.40249 10.1299 7.41413 10.1048 7.42697L7.51298 8.75191C7.07968 8.97378 6.17768 9.43514 6.08235 10.3427C6.03041 10.8371 6.24919 11.2661 6.40869 11.5791L9.0873 16.8385L11.8973 21.9689C12.0666 22.2769 12.2976 22.6998 12.7352 22.9357C13.5321 23.3659 14.428 22.8819 14.8558 22.6509L17.4104 21.2563C17.4996 21.2074 17.5387 21.1927 17.4959 21.2502L20.0444 25.4719C20.3218 25.9314 20.548 26.3433 20.5088 26.7283C20.4635 27.1854 20.0296 27.5949 19.5896 27.975Z" fill="#C1272D"/>
</svg>
