<svg width="48" height="48" viewBox="0 0 48 48" fill="none" xmlns="http://www.w3.org/2000/svg">
<path d="M41 2H7C5.67392 2 4.40215 2.52678 3.46447 3.46447C2.52678 4.40215 2 5.67392 2 7V35C2 36.3261 2.52678 37.5979 3.46447 38.5355C4.40215 39.4732 5.67392 40 7 40H8V45C8 45.2652 8.10536 45.5196 8.29289 45.7071C8.48043 45.8946 8.73478 46 9 46H15C15.2652 46 15.5196 45.8946 15.7071 45.7071C15.8946 45.5196 16 45.2652 16 45V40H29V38H7C6.20435 38 5.44129 37.6839 4.87868 37.1213C4.31607 36.5587 4 35.7957 4 35V7C4 6.20435 4.31607 5.44129 4.87868 4.87868C5.44129 4.31607 6.20435 4 7 4H41C41.7957 4 42.5587 4.31607 43.1213 4.87868C43.6839 5.44129 44 6.20435 44 7V18.92H46V7C46 5.67392 45.4732 4.40215 44.5355 3.46447C43.5979 2.52678 42.3261 2 41 2ZM14 40V44H10V40H14ZM8 32H29V34H7C6.73478 34 6.48043 33.8946 6.29289 33.7071C6.10536 33.5196 6 33.2652 6 33V7C6 6.73478 6.10536 6.48043 6.29289 6.29289C6.48043 6.10536 6.73478 6 7 6H41C41.2652 6 41.5196 6.10536 41.7071 6.29289C41.8946 6.48043 42 6.73478 42 7V19H40V8H8V32ZM21 37V35H27V37H21ZM43 20H33C32.2044 20 31.4413 20.3161 30.8787 20.8787C30.3161 21.4413 30 22.2044 30 23V43C30 43.7957 30.3161 44.5587 30.8787 45.1213C31.4413 45.6839 32.2044 46 33 46H43C43.7957 46 44.5587 45.6839 45.1213 45.1213C45.6839 44.5587 46 43.7957 46 43V23C46 22.2044 45.6839 21.4413 45.1213 20.8787C44.5587 20.3161 43.7957 20 43 20ZM44 43C44 43.2652 43.8946 43.5196 43.7071 43.7071C43.5196 43.8946 43.2652 44 43 44H33C32.7348 44 32.4804 43.8946 32.2929 43.7071C32.1054 43.5196 32 43.2652 32 43V23C32 22.7348 32.1054 22.4804 32.2929 22.2929C32.4804 22.1054 32.7348 22 33 22H43C43.2652 22 43.5196 22.1054 43.7071 22.2929C43.8946 22.4804 44 22.7348 44 23V43ZM37 26H34V24H37V26ZM39 24H42V26H39V24ZM37 30H34V28H37V30ZM39 28H42V30H39V28ZM37 34H34V32H37V34ZM39 32H42V34H39V32ZM41 36H35C34.7348 36 34.4804 36.1054 34.2929 36.2929C34.1054 36.4804 34 36.7348 34 37V41C34 41.2652 34.1054 41.5196 34.2929 41.7071C34.4804 41.8946 34.7348 42 35 42H41C41.2652 42 41.5196 41.8946 41.7071 41.7071C41.8946 41.5196 42 41.2652 42 41V37C42 36.7348 41.8946 36.4804 41.7071 36.2929C41.5196 36.1054 41.2652 36 41 36ZM40 40H36V38H40V40ZM26.3 19.07C26.0184 18.7338 25.6666 18.4634 25.2692 18.2778C24.8718 18.0923 24.4386 17.9961 24 17.9961C23.5614 17.9961 23.1282 18.0923 22.7308 18.2778C22.3334 18.4634 21.9816 18.7338 21.7 19.07L20.16 17.79C20.6292 17.2273 21.2164 16.7746 21.88 16.4639C22.5436 16.1533 23.2673 15.9922 24 15.9922C24.7327 15.9922 25.4564 16.1533 26.12 16.4639C26.7836 16.7746 27.3708 17.2273 27.84 17.79L26.3 19.07ZM30.64 14.93L29.16 16.27C28.5042 15.5546 27.7069 14.9835 26.8186 14.5927C25.9303 14.2019 24.9704 14.0002 24 14.0002C23.0296 14.0002 22.0697 14.2019 21.1814 14.5927C20.2931 14.9835 19.4958 15.5546 18.84 16.27L17.36 14.93C18.2032 14.0084 19.2291 13.2724 20.3722 12.7689C21.5154 12.2654 22.7509 12.0054 24 12.0054C25.2491 12.0054 26.4846 12.2654 27.6278 12.7689C28.7709 13.2724 29.7968 14.0084 30.64 14.93ZM23 20H25V22H23V20Z" fill="#C1272D"/>
</svg>
