<svg width="33" height="33" viewBox="0 0 33 33" fill="none" xmlns="http://www.w3.org/2000/svg">
<path d="M29.4362 7.52344C29.4362 5.32344 27.6362 3.52344 25.4362 3.52344C23.2362 3.52344 21.4362 5.32344 21.4362 7.52344C21.4362 8.80344 22.0495 9.92344 22.9829 10.6568L21.3562 15.5234C20.3029 15.5368 19.3562 15.9634 18.6629 16.6434L14.7162 14.6568C14.7295 14.4968 14.7695 14.3368 14.7695 14.1768C14.7695 11.9768 12.9695 10.1768 10.7695 10.1768C8.56953 10.1768 6.76953 11.9768 6.76953 14.1768C6.76953 15.4568 7.38286 16.5768 8.3162 17.3101L6.68953 22.1768C4.5162 22.2168 2.76953 23.9901 2.76953 26.1634C2.76953 28.3368 4.56953 30.1634 6.76953 30.1634C8.96953 30.1634 10.7695 28.3634 10.7695 26.1634C10.7695 24.8834 10.1562 23.7634 9.22286 23.0301L10.8495 18.1634C11.9029 18.1501 12.8495 17.7234 13.5429 17.0434L17.4895 19.0301C17.4762 19.1901 17.4362 19.3501 17.4362 19.5101C17.4362 21.7101 19.2362 23.5101 21.4362 23.5101C23.6362 23.5101 25.4362 21.7101 25.4362 19.5101C25.4362 18.2301 24.8229 17.1101 23.8895 16.3768L25.5162 11.5101C27.6895 11.4701 29.4362 9.69677 29.4362 7.52344ZM25.4362 6.1901C26.1695 6.1901 26.7695 6.7901 26.7695 7.52344C26.7695 8.25677 26.1695 8.85677 25.4362 8.85677C24.7029 8.85677 24.1029 8.25677 24.1029 7.52344C24.1029 6.7901 24.7029 6.1901 25.4362 6.1901ZM6.76953 27.5234C6.0362 27.5234 5.4362 26.9234 5.4362 26.1901C5.4362 25.4568 6.0362 24.8568 6.76953 24.8568C7.50286 24.8568 8.10286 25.4568 8.10286 26.1901C8.10286 26.9234 7.50286 27.5234 6.76953 27.5234ZM10.7695 15.5234C10.0362 15.5234 9.4362 14.9234 9.4362 14.1901C9.4362 13.4568 10.0362 12.8568 10.7695 12.8568C11.5029 12.8568 12.1029 13.4568 12.1029 14.1901C12.1029 14.9234 11.5029 15.5234 10.7695 15.5234ZM21.4362 20.8568C20.7029 20.8568 20.1029 20.2568 20.1029 19.5234C20.1029 18.7901 20.7029 18.1901 21.4362 18.1901C22.1695 18.1901 22.7695 18.7901 22.7695 19.5234C22.7695 20.2568 22.1695 20.8568 21.4362 20.8568Z" fill="#181818"/>
</svg>
