<svg width="49" height="48" viewBox="0 0 49 48" fill="none" xmlns="http://www.w3.org/2000/svg">
<path fill-rule="evenodd" clip-rule="evenodd" d="M24.6092 7.49531L36.2172 11.2006C36.3719 11.2498 36.4703 11.3975 36.4703 11.5521C36.4703 15.5387 36.618 18.6112 36.7375 21.0861C37.2367 31.3512 37.2437 31.4918 24.7006 40.4562C24.567 40.5476 24.3912 40.5406 24.2717 40.4492C11.7356 31.4848 11.7426 31.3371 12.2418 21.079C12.3613 18.6041 12.509 15.5316 12.509 11.5451C12.509 11.3693 12.6355 11.2217 12.7973 11.1865L24.3772 7.49531C24.4545 7.47422 24.5318 7.47422 24.6021 7.49531H24.6092ZM11.4473 27.3647H6.86317C6.65927 27.3647 6.49756 27.2029 6.49756 26.999V15.9183C6.49756 15.7144 6.65927 15.5527 6.86317 15.5527H11.7286C11.6793 17.3808 11.602 19.2088 11.5176 21.0439C11.4333 22.8016 11.3208 24.6085 11.3911 26.3592C11.4051 26.6967 11.4262 27.0272 11.4543 27.3647H11.4473ZM37.2648 15.5527H42.1302C42.3341 15.5527 42.4958 15.7144 42.4958 15.9183V26.999C42.4958 27.2029 42.3341 27.3647 42.1302 27.3647H37.5601C37.5882 27.0412 37.6023 26.7178 37.6164 26.3944C37.6796 24.6296 37.5601 22.8086 37.4757 21.0439C37.3843 19.2088 37.314 17.3808 37.2648 15.5527ZM38.5233 18.126C38.5585 20.3478 38.6288 22.5766 38.6569 24.7984H39.9225V18.126H38.5233ZM10.3294 24.7984C10.3505 22.5766 10.4067 20.3478 10.4489 18.126H9.07087V24.7984H10.3294ZM15.7221 13.2255L24.1662 10.5327C24.3842 10.4624 24.6162 10.4624 24.8342 10.5327L33.2713 13.2255C33.7283 13.3731 34.0447 13.7809 34.0517 14.2661C34.0939 17.3808 34.2626 20.5306 34.3821 23.6453C34.5509 28.0466 34.2696 29.6638 31.0635 32.448C29.1933 34.0721 27.1614 35.5064 25.1435 36.9407C24.7428 37.222 24.2436 37.215 23.8358 36.9267C21.7757 35.4643 18.0423 32.8417 16.383 30.9364C15.8627 30.3387 15.4057 29.6708 15.1104 28.9255C14.4776 27.3154 14.562 25.2484 14.6253 23.5469C14.7448 20.4603 14.9136 17.3526 14.9557 14.2731C14.9628 13.802 15.2721 13.3802 15.7221 13.2396V13.2255ZM15.9401 13.9286L24.3842 11.2358C24.4545 11.2147 24.5318 11.2076 24.6092 11.2358L33.0463 13.9286C33.2009 13.9708 33.3134 14.1114 33.3134 14.2731C33.3556 17.3948 33.5244 20.5376 33.6439 23.6734C33.7001 25.1921 33.7775 27.1959 33.2009 28.6513C32.6877 29.945 31.5979 31.0067 30.5784 31.8926C28.7715 33.4604 26.7184 34.9158 24.7357 36.322C24.574 36.4345 24.4264 36.4416 24.2576 36.322C22.2538 34.9018 18.5274 32.2793 16.9314 30.4512C16.4604 29.9098 16.0526 29.3122 15.7924 28.6583C15.2089 27.1748 15.3003 25.1218 15.3565 23.575C15.476 20.4673 15.6448 17.3737 15.687 14.2801C15.687 14.1255 15.7854 13.9848 15.9401 13.9356V13.9286ZM22.7249 26.6967L29.6011 19.8205C30.03 19.3916 30.7261 19.3916 31.162 19.8205C31.5909 20.2494 31.5909 20.9454 31.162 21.3814L23.5053 29.038C23.0764 29.4669 22.3804 29.4669 21.9445 29.038L17.8314 24.9249C17.4025 24.496 17.4025 23.8 17.8314 23.3641C18.2603 22.9352 18.9563 22.9352 19.3922 23.3641L22.7249 26.6967Z" fill="#C1272D"/>
</svg>
