<svg width="40" height="36" viewBox="0 0 40 36" fill="none" xmlns="http://www.w3.org/2000/svg">
<path d="M34.9042 2.40497L34.9055 2.40854L39.2812 15.0026C39.2815 15.0035 39.2819 15.0045 39.2822 15.0055C39.4215 15.4243 39.5 15.881 39.5 16.3111V32.2222C39.5 33.7884 38.2149 35.0556 36.6667 35.0556C35.1005 35.0556 33.8333 33.7705 33.8333 32.2222V31.1111V30.6111H33.3333H6.66667H6.16667V31.1111V32.2222C6.16667 33.7905 4.90164 35.0556 3.33333 35.0556C1.76503 35.0556 0.5 33.7905 0.5 32.2222L0.5 16.3111C0.5 15.86 0.57812 15.4255 0.71781 15.0055L5.09327 2.41211C5.09347 2.41154 5.09368 2.41098 5.09388 2.41041C5.49379 1.28901 6.53412 0.5 7.77778 0.5L32.2222 0.5C33.4717 0.5 34.5277 1.29407 34.9042 2.40497ZM3.96998 13.1756L3.75131 13.8333H4.44444L35.5556 13.8333H36.2487L36.03 13.1756L33.2078 4.6867L33.2079 4.68668L33.2053 4.67927C32.8262 3.59616 31.7969 2.83333 30.6222 2.83333L9.37778 2.83333C8.20313 2.83333 7.17383 3.59616 6.79474 4.67927L6.79468 4.67925L6.7922 4.6867L3.96998 13.1756ZM3.94444 21.1111C3.94444 23.2317 5.65719 24.9444 7.77778 24.9444C9.89837 24.9444 11.6111 23.2317 11.6111 21.1111C11.6111 18.9905 9.89837 17.2778 7.77778 17.2778C5.65719 17.2778 3.94444 18.9905 3.94444 21.1111ZM28.3889 21.1111C28.3889 23.2317 30.1016 24.9444 32.2222 24.9444C34.3428 24.9444 36.0556 23.2317 36.0556 21.1111C36.0556 18.9905 34.3428 17.2778 32.2222 17.2778C30.1016 17.2778 28.3889 18.9905 28.3889 21.1111Z" stroke="#C1272D"/>
</svg>
